<?xml version="1.0" encoding="UTF-8"?>
<svg width="15px" height="14px" viewBox="0 0 15 14" version="1.1" xmlns="http://www.w3.org/2000/svg" xmlns:xlink="http://www.w3.org/1999/xlink">
    <!-- Generator: Sketch 48.1 (47250) - http://www.bohemiancoding.com/sketch -->
    <title>Group 2</title>
    <desc>Created with Sketch.</desc>
    <defs></defs>
    <g id="UI" stroke="none" stroke-width="1" fill="none" fill-rule="evenodd" transform="translate(-1393.000000, -105.000000)">
        <g id="calendar" transform="translate(1385.000000, 98.000000)" fill="#B6B6B6" fill-rule="nonzero">
            <g id="Select">
                <g>
                    <g id="Select-Copy" transform="translate(8.000000, 7.000000)">
                        <g id="Group-2">
                            <g id="calendar-25">
                                <path d="M12.6298925,0.967282443 L10.7588172,0.967282443 L10.7588172,0.502343511 C10.7588172,0.223412214 10.5717204,0.0374045802 10.2910215,0.0374045802 C10.0103226,0.0374045802 9.82322581,0.223358779 9.82322581,0.502343511 L9.82322581,0.967282443 L5.14553763,0.967282443 L5.14553763,0.502343511 C5.14553763,0.223412214 4.95844086,0.0374045802 4.67774194,0.0374045802 C4.39709677,0.0374045802 4.20994624,0.223358779 4.20994624,0.502343511 L4.20994624,0.967282443 L2.33887097,0.967282443 C1.02908602,0.967282443 2.84217094e-14,1.99008397 2.84217094e-14,3.29187023 L2.84217094e-14,11.6603969 C2.84217094e-14,12.9621832 1.02908602,13.9849847 2.33887097,13.9849847 L12.6298925,13.9849847 C13.9396774,13.9849847 14.9687634,12.9621832 14.9687634,11.6603969 L14.9687634,3.29187023 C14.9687634,1.99008397 13.9396774,0.967282443 12.6298925,0.967282443 Z M0.935537634,3.29187023 C0.935537634,2.548 1.59043011,1.89710687 2.33887097,1.89710687 L4.20994624,1.89710687 L4.20994624,2.3620458 C4.20994624,2.6409771 4.39704301,2.82698473 4.67774194,2.82698473 C4.9583871,2.82698473 5.14553763,2.64103053 5.14553763,2.3620458 L5.14553763,1.89710687 L9.82327957,1.89710687 L9.82327957,2.3620458 C9.82327957,2.6409771 10.0103763,2.82698473 10.2910753,2.82698473 C10.5717742,2.82698473 10.758871,2.64103053 10.758871,2.3620458 L10.758871,1.89710687 L12.6299462,1.89710687 C13.3783871,1.89710687 14.0332796,2.548 14.0332796,3.29187023 L14.0332796,4.68663359 L0.935537634,4.68663359 L0.935537634,3.29187023 Z M14.0332258,11.6603969 C14.0332258,12.4042672 13.3783333,13.0551603 12.6298925,13.0551603 L2.33887097,13.0551603 C1.59043011,13.0551603 0.935537634,12.4042672 0.935537634,11.6603969 L0.935537634,5.61645802 L14.0332258,5.61645802 L14.0332258,11.6603969 Z" id="Shape"></path>
                                <path d="M3.2744086,11.6603969 C3.55505376,11.6603969 3.7422043,11.5674198 3.92930108,11.3814656 C4.11639785,11.1955115 4.20994624,10.9165267 4.20994624,10.7305725 C4.20994624,10.5446183 4.11639785,10.2656336 3.92930108,10.0796794 C3.55510753,9.70777099 2.99376344,9.70777099 2.61951613,10.0796794 C2.43241935,10.2656336 2.33887097,10.4515878 2.33887097,10.7305725 C2.33887097,10.9165267 2.43241935,11.1955115 2.61951613,11.3814656 C2.8066129,11.5674198 2.99376344,11.6603969 3.2744086,11.6603969 Z" id="Shape"></path>
                                <path d="M3.2744086,8.87087023 C3.55505376,8.87087023 3.7422043,8.77789313 3.92930108,8.59193893 C4.11639785,8.40598473 4.20994624,8.127 4.20994624,7.9410458 C4.20994624,7.7550916 4.11639785,7.47610687 3.92930108,7.29015267 C3.55510753,6.91824427 2.99376344,6.91824427 2.61951613,7.29015267 C2.43241935,7.47610687 2.33887097,7.66206107 2.33887097,7.9410458 C2.33887097,8.22003053 2.43241935,8.40598473 2.61951613,8.59193893 C2.8066129,8.77789313 2.99376344,8.87087023 3.2744086,8.87087023 Z" id="Shape"></path>
                                <path d="M6.08107527,11.6603969 C6.36172043,11.6603969 6.54887097,11.5674198 6.73596774,11.3814656 C6.92306452,11.1955115 7.0166129,10.9165267 7.0166129,10.7305725 C7.0166129,10.5446183 6.92306452,10.2656336 6.73596774,10.0796794 C6.36177419,9.70777099 5.80043011,9.70777099 5.4261828,10.0796794 C5.23908602,10.2656336 5.14553763,10.5446183 5.14553763,10.7305725 C5.14553763,10.9165267 5.23908602,11.1955115 5.4261828,11.3814656 C5.61327957,11.5674198 5.80043011,11.6603969 6.08107527,11.6603969 Z" id="Shape"></path>
                                <path d="M6.08107527,8.87087023 C6.36172043,8.87087023 6.54887097,8.77789313 6.73596774,8.59193893 C6.92306452,8.40598473 7.0166129,8.127 7.0166129,7.9410458 C7.0166129,7.7550916 6.92306452,7.47610687 6.73596774,7.29015267 C6.36177419,6.91824427 5.80043011,6.91824427 5.4261828,7.29015267 C5.23908602,7.47610687 5.14553763,7.7550916 5.14553763,7.9410458 C5.14553763,8.127 5.23908602,8.40598473 5.4261828,8.59193893 C5.61327957,8.77789313 5.80043011,8.87087023 6.08107527,8.87087023 Z" id="Shape"></path>
                                <path d="M8.88768817,11.6603969 C9.16833333,11.6603969 9.35548387,11.5674198 9.54258065,11.3814656 C9.72967742,11.1955115 9.82322581,11.0095573 9.82322581,10.7305725 C9.82322581,10.4515878 9.72967742,10.2656336 9.54258065,10.0796794 C9.1683871,9.70777099 8.60704301,9.70777099 8.2327957,10.0796794 C8.04569892,10.2656336 7.95215054,10.5446183 7.95215054,10.7305725 C7.95215054,10.9165267 8.04569892,11.1955115 8.2327957,11.3814656 C8.41989247,11.5674198 8.60704301,11.6603969 8.88768817,11.6603969 Z" id="Shape"></path>
                                <path d="M8.88768817,8.87087023 C9.16833333,8.87087023 9.35548387,8.77789313 9.54258065,8.59193893 C9.72967742,8.40598473 9.82322581,8.22003053 9.82322581,7.9410458 C9.82322581,7.7550916 9.72967742,7.47610687 9.54258065,7.29015267 C9.1683871,6.91824427 8.60704301,6.91824427 8.2327957,7.29015267 C8.04569892,7.47610687 7.95215054,7.7550916 7.95215054,7.9410458 C7.95215054,8.127 8.04569892,8.40598473 8.2327957,8.59193893 C8.41989247,8.77789313 8.60704301,8.87087023 8.88768817,8.87087023 Z" id="Shape"></path>
                                <path d="M11.6943548,11.6603969 C11.975,11.6603969 12.1621505,11.5674198 12.3492473,11.3814656 C12.5363441,11.1955115 12.6298925,10.9165267 12.6298925,10.7305725 C12.6298925,10.5446183 12.5363441,10.2656336 12.3492473,10.0796794 C11.9750538,9.70777099 11.4137097,9.70777099 11.0394624,10.0796794 C10.8523656,10.2656336 10.7588172,10.4515878 10.7588172,10.7305725 C10.7588172,10.9165267 10.8523656,11.1955115 11.0394624,11.3814656 C11.2265591,11.5674198 11.4137097,11.6603969 11.6943548,11.6603969 Z" id="Shape"></path>
                                <path d="M11.6943548,8.87087023 C11.975,8.87087023 12.1621505,8.77789313 12.3492473,8.59193893 C12.5363441,8.40598473 12.6298925,8.22003053 12.6298925,7.9410458 C12.6298925,7.7550916 12.5363441,7.47610687 12.3492473,7.29015267 C11.9750538,6.91824427 11.4137097,6.91824427 11.0394624,7.29015267 C10.8523656,7.47610687 10.7588172,7.7550916 10.7588172,7.9410458 C10.7588172,8.127 10.8523656,8.40598473 11.0394624,8.59193893 C11.2265591,8.77789313 11.4137097,8.87087023 11.6943548,8.87087023 Z" id="Shape"></path>
                            </g>
                        </g>
                    </g>
                </g>
            </g>
        </g>
    </g>
</svg>