<?xml version="1.0" encoding="UTF-8"?>
<svg width="17px" height="14px" viewBox="0 0 17 14" version="1.1" xmlns="http://www.w3.org/2000/svg" xmlns:xlink="http://www.w3.org/1999/xlink">
    <!-- Generator: Sketch 48.1 (47250) - http://www.bohemiancoding.com/sketch -->
    <title>File icon</title>
    <desc>Created with Sketch.</desc>
    <defs></defs>
    <g id="1920-Заказ-от-лица-менеджера" stroke="none" stroke-width="1" fill="none" fill-rule="evenodd" transform="translate(-390.000000, -1177.000000)">
        <g id="Settings" transform="translate(360.000000, 1033.000000)" fill="#F0605F">
            <g id="File-" transform="translate(30.000000, 115.000000)">
                <g id="File-icon" transform="translate(0.000000, 29.000000)">
                    <g id="Capa_1">
                        <g id="Group">
                            <path d="M4.11313168,5.65384615 C4.04348652,5.65384615 3.98179297,5.70015385 3.9636962,5.76611538 L0.822809101,13.4615385 L0.822809101,13.7307692 C0.822809101,13.9283846 0.809922004,14 0.977728455,14 L13.2503575,14 C13.5673252,14 13.8464543,13.7902692 13.9221317,13.5118846 L16.7260349,5.92307692 L16.7260349,5.65384615 L4.11313168,5.65384615 L4.11313168,5.65384615 Z" id="Shape"></path>
                            <path d="M3.49075806,4.44230769 L14.5322581,4.44230769 L14.8064516,4.44230769 L14.8064516,2.75476923 C14.8064516,2.34903846 14.4702903,2.01923077 14.0573548,2.01923077 L7.27024194,2.01923077 L5.89927419,0.134615385 L0.749096774,0.134615385 C0.33616129,0.134615385 0,0.464692308 0,0.870153846 L0,12.1229231 L2.81925806,4.92988462 C2.89466129,4.65203846 3.17379032,4.44230769 3.49075806,4.44230769 L3.49075806,4.44230769 Z" id="Shape"></path>
                        </g>
                    </g>
                </g>
            </g>
        </g>
    </g>
</svg>