<?xml version="1.0" encoding="UTF-8"?>
<svg width="16px" height="16px" viewBox="0 0 16 16" version="1.1" xmlns="http://www.w3.org/2000/svg" xmlns:xlink="http://www.w3.org/1999/xlink">
    <!-- Generator: Sketch 48.1 (47250) - http://www.bohemiancoding.com/sketch -->
    <title>Check </title>
    <desc>Created with Sketch.</desc>
    <defs></defs>
    <g id="1920-список-заказов" stroke="none" stroke-width="1" fill="none" fill-rule="evenodd" transform="translate(-389.000000, -1821.000000)">
        <g id="completed-order-1" transform="translate(360.000000, 1762.000000)" fill="#00C731" fill-rule="nonzero">
            <g id="Header" transform="translate(29.000000, 25.000000)">
                <g id="Check-" transform="translate(0.000000, 34.000000)">
                    <path d="M8,0 C3.56363636,0 0,3.56363636 0,8 C0,12.4363636 3.56363636,16 8,16 C12.4363636,16 16,12.4363636 16,8 C16,3.56363636 12.4363636,0 8,0 Z M13.2398601,5.1506993 L6.63846154,11.9996503 C6.55594406,12.0821678 6.47342657,12.1234266 6.34965035,12.1234266 C6.22587413,12.1234266 6.1020979,12.0821678 6.06083916,11.9996503 L2.84265734,8.53391608 L2.76013986,8.4513986 C2.67762238,8.36888112 2.63636364,8.2451049 2.63636364,8.16258741 C2.63636364,8.08006993 2.67762238,7.95629371 2.76013986,7.87377622 L3.33776224,7.29615385 C3.5027972,7.13111888 3.75034965,7.13111888 3.91538462,7.29615385 L3.95664336,7.33741259 L6.22587413,9.77167832 C6.30839161,9.8541958 6.43216783,9.8541958 6.51468531,9.77167832 L12.0433566,4.03671329 L12.0846154,4.03671329 C12.2496503,3.87167832 12.4972028,3.87167832 12.6622378,4.03671329 L13.2398601,4.61433566 C13.4048951,4.73811189 13.4048951,4.98566434 13.2398601,5.1506993 Z" id="Shape"></path>
                </g>
            </g>
        </g>
    </g>
</svg>