<?xml version="1.0" encoding="UTF-8"?>
<svg width="35px" height="40px" viewBox="0 0 35 40" version="1.1" xmlns="http://www.w3.org/2000/svg" xmlns:xlink="http://www.w3.org/1999/xlink">
    <!-- Generator: Sketch 48.1 (47250) - http://www.bohemiancoding.com/sketch -->
    <title>xlsx</title>
    <desc>Created with Sketch.</desc>
    <defs></defs>
    <g id="UI" stroke="none" stroke-width="1" fill="none" fill-rule="evenodd" transform="translate(-2349.000000, -778.000000)">
        <g id="files-icons" transform="translate(1843.000000, 778.000000)" fill-rule="nonzero">
            <g id="xlsx" transform="translate(506.000000, 0.000000)">
                <g id="ai-copy-6">
                    <path d="M7.5,0 C6.125,0 5,1.125 5,2.5 L5,37.5 C5,38.875 6.125,40 7.5,40 L32.5,40 C33.875,40 35,38.875 35,37.5 L35,10 L25,0 L7.5,0 Z" id="Shape" fill="#E2E5E7" style="fill: #E2E5E7;"></path>
                    <path d="M27.5,10 L35,10 L25,0 L25,7.5 C25,8.875 26.125,10 27.5,10 Z" id="Shape" fill="#B0B7BD" style="fill: #B0B7BD;"></path>
                    <polygon id="Shape" fill="#CAD1D8" style="fill: #CAD1D8;" points="35 17.5 27.5 10 35 10"></polygon>
                    <path d="M30,32.5 C30,33.1875 29.4375,33.75 28.75,33.75 L1.25,33.75 C0.5625,33.75 0,33.1875 0,32.5 L0,20 C0,19.3125 0.5625,18.75 1.25,18.75 L28.75,18.75 C29.4375,18.75 30,19.3125 30,20 L30,32.5 Z" id="Shape" fill="#41A970" style="fill: #41A970;"></path>
                    <path d="M28.75,33.75 L5,33.75 L5,35 L28.75,35 C29.4375,35 30,34.4375 30,33.75 L30,32.5 C30,33.1875 29.4375,33.75 28.75,33.75 Z" id="Shape" fill="#CAD1D8" style="fill: #CAD1D8;"></path>
                </g>
                <path d="M9.30236606,29.765625 L6.57986606,25.906875 L9.13361606,22.261875 L7.20986606,22.261875 L5.51111606,24.826875 L3.78986606,22.261875 L1.88861606,22.261875 L4.44236606,25.918125 L1.71986606,29.765625 L3.62111606,29.765625 L5.51111606,27.020625 L7.38986606,29.765625 L9.30236606,29.765625 Z M14.5079018,29.765625 L14.5079018,28.359375 L11.3354018,28.359375 L11.3354018,22.261875 L9.73790178,22.261875 L9.73790178,29.765625 L14.5079018,29.765625 Z M18.0146875,29.900625 C20.0396875,29.900625 21.0184375,28.865625 21.0184375,27.493125 C21.0184375,24.691875 16.7096875,25.490625 16.7096875,24.298125 C16.7096875,23.848125 17.0921875,23.544375 17.7784375,23.544375 C18.5434375,23.544375 19.3534375,23.803125 19.9609375,24.365625 L20.8496875,23.195625 C20.1071875,22.509375 19.1171875,22.149375 17.9246875,22.149375 C16.1584375,22.149375 15.0784375,23.184375 15.0784375,24.433125 C15.0784375,27.256875 19.3984375,26.345625 19.3984375,27.673125 C19.3984375,28.100625 18.9709375,28.505625 18.0934375,28.505625 C17.0584375,28.505625 16.2371875,28.044375 15.7084375,27.493125 L14.8421875,28.708125 C15.5396875,29.416875 16.5746875,29.900625 18.0146875,29.900625 Z M28.6314732,29.765625 L25.9089732,25.906875 L28.4627232,22.261875 L26.5389732,22.261875 L24.8402232,24.826875 L23.1189732,22.261875 L21.2177232,22.261875 L23.7714732,25.918125 L21.0489732,29.765625 L22.9502232,29.765625 L24.8402232,27.020625 L26.7189732,29.765625 L28.6314732,29.765625 Z" id="XLSX" fill="#FFFFFF" style="fill: #FFFFFF;"></path>
            </g>
        </g>
    </g>
</svg>