<?xml version="1.0" encoding="UTF-8"?>
<svg width="35px" height="40px" viewBox="0 0 35 40" version="1.1" xmlns="http://www.w3.org/2000/svg" xmlns:xlink="http://www.w3.org/1999/xlink">
    <!-- Generator: Sketch 48.1 (47250) - http://www.bohemiancoding.com/sketch -->
    <title>psd</title>
    <desc>Created with Sketch.</desc>
    <defs></defs>
    <g id="UI" stroke="none" stroke-width="1" fill="none" fill-rule="evenodd" transform="translate(-2033.000000, -778.000000)">
        <g id="files-icons" transform="translate(1843.000000, 778.000000)" fill-rule="nonzero">
            <g id="psd" transform="translate(190.000000, 0.000000)">
                <g id="ai-copy-2">
                    <path d="M7.5,0 C6.125,0 5,1.125 5,2.5 L5,37.5 C5,38.875 6.125,40 7.5,40 L32.5,40 C33.875,40 35,38.875 35,37.5 L35,10 L25,0 L7.5,0 Z" id="Shape" fill="#E2E5E7" style="fill: #E2E5E7;"></path>
                    <path d="M27.5,10 L35,10 L25,0 L25,7.5 C25,8.875 26.125,10 27.5,10 Z" id="Shape" fill="#B0B7BD" style="fill: #B0B7BD;"></path>
                    <polygon id="Shape" fill="#CAD1D8" style="fill: #CAD1D8;" points="35 17.5 27.5 10 35 10"></polygon>
                    <path d="M30,32.5 C30,33.1875 29.4375,33.75 28.75,33.75 L1.25,33.75 C0.5625,33.75 0,33.1875 0,32.5 L0,20 C0,19.3125 0.5625,18.75 1.25,18.75 L28.75,18.75 C29.4375,18.75 30,19.3125 30,20 L30,32.5 Z" id="Shape" fill="#0C65CC" style="fill: #0C65CC;"></path>
                    <path d="M28.75,33.75 L5,33.75 L5,35 L28.75,35 C29.4375,35 30,34.4375 30,33.75 L30,32.5 C30,33.1875 29.4375,33.75 28.75,33.75 Z" id="Shape" fill="#CAD1D8" style="fill: #CAD1D8;"></path>
                </g>
                <path d="M6.90419642,29.765625 L5.30669642,29.765625 L5.30669642,22.261875 L8.81669642,22.261875 C10.4479464,22.261875 11.3366964,23.364375 11.3366964,24.680625 C11.3366964,25.985625 10.4366964,27.099375 8.81669642,27.099375 L6.90419642,27.099375 L6.90419642,29.765625 Z M8.60294642,25.693125 C9.23294642,25.693125 9.70544642,25.299375 9.70544642,24.680625 C9.70544642,24.050625 9.23294642,23.668125 8.60294642,23.668125 L6.90419642,23.668125 L6.90419642,25.693125 L8.60294642,25.693125 Z M14.7197321,29.900625 C16.7447321,29.900625 17.7234821,28.865625 17.7234821,27.493125 C17.7234821,24.691875 13.4147321,25.490625 13.4147321,24.298125 C13.4147321,23.848125 13.7972321,23.544375 14.4834821,23.544375 C15.2484821,23.544375 16.0584821,23.803125 16.6659821,24.365625 L17.5547321,23.195625 C16.8122321,22.509375 15.8222321,22.149375 14.6297321,22.149375 C12.8634821,22.149375 11.7834821,23.184375 11.7834821,24.433125 C11.7834821,27.256875 16.1034821,26.345625 16.1034821,27.673125 C16.1034821,28.100625 15.6759821,28.505625 14.7984821,28.505625 C13.7634821,28.505625 12.9422321,28.044375 12.4134821,27.493125 L11.5472321,28.708125 C12.2447321,29.416875 13.2797321,29.900625 14.7197321,29.900625 Z M21.4890179,29.765625 L18.5302679,29.765625 L18.5302679,22.261875 L21.4890179,22.261875 C23.8402679,22.261875 25.4715179,23.758125 25.4715179,26.019375 C25.4715179,28.280625 23.8402679,29.765625 21.4890179,29.765625 Z M21.4890179,28.359375 C22.9740179,28.359375 23.8402679,27.290625 23.8402679,26.019375 C23.8402679,24.691875 23.0302679,23.668125 21.4890179,23.668125 L20.1277679,23.668125 L20.1277679,28.359375 L21.4890179,28.359375 Z" id="PSD" fill="#FFFFFF" style="fill: #ffffff;"></path>
            </g>
        </g>
    </g>
</svg>