<?xml version="1.0" encoding="UTF-8"?>
<svg width="16px" height="14px" viewBox="0 0 16 14" version="1.1" xmlns="http://www.w3.org/2000/svg" xmlns:xlink="http://www.w3.org/1999/xlink">
    <!-- Generator: Sketch 48.1 (47250) - http://www.bohemiancoding.com/sketch -->
    <title>photo-camera-11</title>
    <desc>Created with Sketch.</desc>
    <defs></defs>
    <g id="1920-Добавление-товара" stroke="none" stroke-width="1" fill="none" fill-rule="evenodd" transform="translate(-830.000000, -282.000000)" opacity="0.5">
        <g id="Group-3" transform="translate(530.000000, 143.000000)" fill="#000000">
            <g id="Group-2" transform="translate(290.000000, 89.000000)">
                <g id="Group-3-Copy-4" transform="translate(0.000000, 42.000000)">
                    <g id="photo-camera-11" transform="translate(10.000000, 8.000000)">
                        <g id="Capa_1">
                            <g id="Group">
                                <path d="M15.3518397,2.79544118 C14.9357523,2.37561765 14.4338652,2.16564706 13.8458288,2.16564706 L11.9819891,2.16564706 L11.5577122,1.02370588 C11.4522696,0.749441176 11.2595993,0.512882353 10.9793224,0.314058824 C10.6991621,0.115323529 10.4121239,0.0158823529 10.1180911,0.0158823529 L5.85780692,0.0158823529 C5.56380328,0.0158823529 5.27670674,0.115323529 4.99654645,0.314058824 C4.71638616,0.512882353 4.5236867,0.749441176 4.41827322,1.02370588 L3.99393807,2.16564706 L2.13009836,2.16564706 C1.54200364,2.16564706 1.04008743,2.37561765 0.624,2.79544118 C0.208,3.21529412 0,3.72188235 0,4.31532353 L0,11.8392353 C0,12.4327059 0.208,12.9393529 0.624,13.3590882 C1.04008743,13.779 1.54203279,13.9889706 2.13009836,13.9889706 L13.8456248,13.9889706 C14.4336612,13.9889706 14.9355191,13.779 15.3516357,13.3590882 C15.7676066,12.9393529 15.9756648,12.4327059 15.9756648,11.8392353 L15.9756648,4.31532353 C15.9757814,3.72188235 15.7677231,3.21529412 15.3518397,2.79544118 L15.3518397,2.79544118 Z M10.621377,10.7350882 C9.89193443,11.4712647 9.01417851,11.8394412 7.98787614,11.8394412 C6.96157377,11.8394412 6.08387614,11.4712647 5.35437523,10.7350882 C4.62487432,9.99902941 4.26019672,9.113 4.26019672,8.0775 C4.26019672,7.04167647 4.62499089,6.15594118 5.35437523,5.41973529 C6.08378871,4.68352941 6.96160291,4.3155 7.98787614,4.3155 C9.01414936,4.3155 9.89193443,4.68361765 10.621377,5.41973529 C11.3508488,6.15585294 11.7155847,7.04167647 11.7155847,8.0775 C11.7155847,9.113 11.350878,9.99894118 10.621377,10.7350882 L10.621377,10.7350882 Z" id="Shape"></path>
                                <path d="M7.98787614,5.65891176 C7.3277377,5.65891176 6.76330783,5.89544118 6.29455738,6.36855882 C5.82580692,6.84161765 5.59143169,7.41114706 5.59143169,8.0775 C5.59143169,8.74358824 5.82580692,9.31320588 6.29455738,9.78626471 C6.76330783,10.2592353 7.32770856,10.4957647 7.98787614,10.4957647 C8.64792714,10.4957647 9.2124153,10.2592353 9.68116576,9.78626471 C10.1499162,9.31320588 10.3843206,8.74361765 10.3843206,8.0775 C10.3843206,7.41117647 10.1499162,6.84164706 9.68116576,6.36855882 C9.21244444,5.89547059 8.64792714,5.65891176 7.98787614,5.65891176 L7.98787614,5.65891176 Z" id="Shape"></path>
                            </g>
                        </g>
                    </g>
                </g>
            </g>
        </g>
    </g>
</svg>