<?xml version="1.0" encoding="UTF-8"?>
<svg width="16px" height="11px" viewBox="0 0 16 11" version="1.1" xmlns="http://www.w3.org/2000/svg" xmlns:xlink="http://www.w3.org/1999/xlink">
    <!-- Generator: Sketch 48.1 (47250) - http://www.bohemiancoding.com/sketch -->
    <title>high-heels</title>
    <desc>Created with Sketch.</desc>
    <defs></defs>
    <g id="1920-Добавление-товара" stroke="none" stroke-width="1" fill="none" fill-rule="evenodd" transform="translate(-832.000000, -325.000000)" opacity="0.5">
        <g id="Group-3" transform="translate(530.000000, 143.000000)" fill="#000000">
            <g id="Group-2" transform="translate(290.000000, 89.000000)">
                <g id="Group-26" transform="translate(0.000000, 83.000000)">
                    <g id="high-heels" transform="translate(12.000000, 10.000000)">
                        <g id="Layer_1">
                            <path d="M14.7233125,0.433905405 C14.0845313,0.0838675676 13.4080938,-0.0464081081 12.7671563,0.0572594595 C12.1728125,0.153435135 11.6189063,0.446897297 11.165,0.905894595 L6.41303125,5.53314865 C5.90325,5.98652703 5.49584375,6.04458919 4.039,6.19246486 C3.7663125,6.22014324 3.45725,6.25150811 3.1115625,6.29021622 C2.3029375,6.38074324 1.50034375,6.8376 0.90946875,7.54362162 C0.32296875,8.24438108 0,9.09917027 0,9.95057027 C0,10.4984297 0.46853125,10.9441676 1.04440625,10.9441676 L6.61459375,10.9441676 C8.09940625,10.9441676 8.73240625,9.97176757 9.3445625,9.03138649 C9.4191875,8.91671892 9.496375,8.79818649 9.57578125,8.6798027 C10.5963438,7.15882973 11.4024375,5.95745135 12.5761875,5.37920811 C13.102,5.11984595 13.6928438,4.99022432 14.3825313,4.98282162 C14.4301563,4.98228649 14.4775,4.9755973 14.5232188,4.96287297 C15.0824375,4.80726757 15.5284375,4.41736216 15.7790313,3.86483514 C15.7815625,3.85918649 15.7840313,3.85347838 15.786375,3.84774054 C16.2656875,2.76688649 15.9495625,1.1057973 14.7233125,0.433905405 L14.7233125,0.433905405 Z" id="Shape"></path>
                            <path d="M14.8164688,5.91657297 C14.6791563,5.95471622 14.53725,5.97484324 14.3945313,5.97638919 C13.8717813,5.98197838 13.434375,6.07515135 13.057,6.26131892 C12.704625,6.43494054 12.3791875,6.70253784 12.0595313,7.04422162 L12.0595313,10.4805324 C12.0595313,10.7547892 12.2934375,10.9773459 12.58175,10.9773459 L13.6261563,10.9773459 C13.8814688,10.9773459 14.0994063,10.8017027 14.1412188,10.5623784 L14.9629375,5.87182973 C14.9146563,5.88779459 14.8659063,5.90280811 14.8164688,5.91657297 L14.8164688,5.91657297 Z" id="Shape"></path>
                        </g>
                    </g>
                </g>
            </g>
        </g>
    </g>
</svg>