<?xml version="1.0" encoding="UTF-8"?>
<svg width="14px" height="14px" viewBox="0 0 14 14" version="1.1" xmlns="http://www.w3.org/2000/svg" xmlns:xlink="http://www.w3.org/1999/xlink">
    <!-- Generator: Sketch 48.1 (47250) - http://www.bohemiancoding.com/sketch -->
    <title>Group 4</title>
    <desc>Created with Sketch.</desc>
    <defs></defs>
    <g id="1920-Добавление-товара" stroke="none" stroke-width="1" fill="none" fill-rule="evenodd" transform="translate(-1400.000000, -143.000000)">
        <g id="Group-4" transform="translate(1400.000000, 143.000000)" fill="#FFFFFF" fill-rule="nonzero">
            <g id="close-5">
                <path d="M8.23316667,6.99591667 L13.7351667,1.49391667 C14.077,1.152375 14.077,0.598208333 13.7351667,0.256666667 C13.3933333,-0.0851666667 12.83975,-0.0851666667 12.4979167,0.256666667 L6.99591667,5.75866667 L1.493625,0.256666667 C1.15179167,-0.0851666667 0.598208333,-0.0851666667 0.256375,0.256666667 C-0.0854583333,0.598208333 -0.0854583333,1.152375 0.256375,1.49391667 L5.75866667,6.99591667 L0.256375,12.4979167 C-0.0854583333,12.8394583 -0.0854583333,13.393625 0.256375,13.7351667 C0.427291667,13.9057917 0.651291667,13.99125 0.875,13.99125 C1.09870833,13.99125 1.32270833,13.9057917 1.493625,13.734875 L6.99591667,8.232875 L12.4979167,13.734875 C12.6688333,13.9057917 12.8928333,13.99125 13.1165417,13.99125 C13.34025,13.99125 13.56425,13.9057917 13.7351667,13.734875 C14.077,13.3933333 14.077,12.8391667 13.7351667,12.497625 L8.23316667,6.99591667 Z" id="Shape"></path>
            </g>
        </g>
    </g>
</svg>