<?xml version="1.0" encoding="UTF-8"?>
<svg width="35px" height="40px" viewBox="0 0 35 40" version="1.1" xmlns="http://www.w3.org/2000/svg" xmlns:xlink="http://www.w3.org/1999/xlink">
    <!-- Generator: Sketch 48.1 (47250) - http://www.bohemiancoding.com/sketch -->
    <title>jpg</title>
    <desc>Created with Sketch.</desc>
    <defs></defs>
    <g id="UI" stroke="none" stroke-width="1" fill="none" fill-rule="evenodd" transform="translate(-2096.000000, -778.000000)">
        <g id="files-icons" transform="translate(1843.000000, 778.000000)" fill-rule="nonzero">
            <g id="jpg" transform="translate(253.000000, 0.000000)">
                <g id="ai-copy-6">
                    <path d="M7.5,0 C6.125,0 5,1.125 5,2.5 L5,37.5 C5,38.875 6.125,40 7.5,40 L32.5,40 C33.875,40 35,38.875 35,37.5 L35,10 L25,0 L7.5,0 Z" id="Shape" fill="#E2E5E7" style="fill: #E2E5E7;"></path>
                    <path d="M27.5,10 L35,10 L25,0 L25,7.5 C25,8.875 26.125,10 27.5,10 Z" id="Shape" fill="#B0B7BD" style="fill: #B0B7BD;"></path>
                    <polygon id="Shape" fill="#CAD1D8" style="fill: #CAD1D8;" points="35 17.5 27.5 10 35 10"></polygon>
                    <path d="M30,32.5 C30,33.1875 29.4375,33.75 28.75,33.75 L1.25,33.75 C0.5625,33.75 0,33.1875 0,32.5 L0,20 C0,19.3125 0.5625,18.75 1.25,18.75 L28.75,18.75 C29.4375,18.75 30,19.3125 30,20 L30,32.5 Z" id="Shape" fill="#585858" style="fill: #585858;"></path>
                    <path d="M28.75,33.75 L5,33.75 L5,35 L28.75,35 C29.4375,35 30,34.4375 30,33.75 L30,32.5 C30,33.1875 29.4375,33.75 28.75,33.75 Z" id="Shape" fill="#CAD1D8" style="fill: #CAD1D8;"></path>
                </g>
                <path d="M7.23638392,29.900625 C8.77763392,29.900625 9.88013392,29.079375 9.88013392,27.301875 L9.88013392,22.261875 L8.28263392,22.261875 L8.28263392,27.279375 C8.28263392,28.010625 7.82138392,28.483125 7.11263392,28.483125 C6.59513392,28.483125 6.21263392,28.224375 5.92013392,27.943125 L5.22263392,29.169375 C5.76263392,29.698125 6.48263392,29.900625 7.23638392,29.900625 Z M12.6894196,29.765625 L11.0919196,29.765625 L11.0919196,22.261875 L14.6019196,22.261875 C16.2331696,22.261875 17.1219196,23.364375 17.1219196,24.680625 C17.1219196,25.985625 16.2219196,27.099375 14.6019196,27.099375 L12.6894196,27.099375 L12.6894196,29.765625 Z M14.3881696,25.693125 C15.0181696,25.693125 15.4906696,25.299375 15.4906696,24.680625 C15.4906696,24.050625 15.0181696,23.668125 14.3881696,23.668125 L12.6894196,23.668125 L12.6894196,25.693125 L14.3881696,25.693125 Z M21.4724554,29.911875 C22.8337054,29.911875 23.9024554,29.349375 24.6674554,28.494375 L24.6674554,25.614375 L21.0899554,25.614375 L21.0899554,27.009375 L23.0699554,27.009375 L23.0699554,27.909375 C22.7662054,28.190625 22.1362054,28.483125 21.4724554,28.483125 C20.1112054,28.483125 19.1212054,27.436875 19.1212054,26.019375 C19.1212054,24.601875 20.1112054,23.555625 21.4724554,23.555625 C22.2712054,23.555625 22.9124554,24.005625 23.2499554,24.534375 L24.5774554,23.814375 C24.0149554,22.925625 23.0362054,22.138125 21.4724554,22.138125 C19.2787054,22.138125 17.4787054,23.645625 17.4787054,26.019375 C17.4787054,28.381875 19.2787054,29.911875 21.4724554,29.911875 Z" id="JPG" fill="#FFFFFF" style="fill: #ffffff;"></path>
            </g>
        </g>
    </g>
</svg>