<?xml version="1.0" encoding="UTF-8"?>
<svg width="35px" height="40px" viewBox="0 0 35 40" version="1.1" xmlns="http://www.w3.org/2000/svg" xmlns:xlink="http://www.w3.org/1999/xlink">
    <!-- Generator: Sketch 48.1 (47250) - http://www.bohemiancoding.com/sketch -->
    <title>eps</title>
    <desc>Created with Sketch.</desc>
    <defs></defs>
    <g id="UI" stroke="none" stroke-width="1" fill="none" fill-rule="evenodd" transform="translate(-1843.000000, -778.000000)">
        <g id="files-icons" transform="translate(1843.000000, 778.000000)" fill-rule="nonzero">
            <g id="eps">
                <g id="ai-copy-3">
                    <path d="M7.5,0 C6.125,0 5,1.125 5,2.5 L5,37.5 C5,38.875 6.125,40 7.5,40 L32.5,40 C33.875,40 35,38.875 35,37.5 L35,10 L25,0 L7.5,0 Z" id="Shape" fill="#E2E5E7" style="fill: #E2E5E7;"></path>
                    <path d="M27.5,10 L35,10 L25,0 L25,7.5 C25,8.875 26.125,10 27.5,10 Z" id="Shape" fill="#B0B7BD" style="fill: #B0B7BD;"></path>
                    <polygon id="Shape" fill="#CAD1D8" style="fill: #CAD1D8;" points="35 17.5 27.5 10 35 10"></polygon>
                    <path d="M30,32.5 C30,33.1875 29.4375,33.75 28.75,33.75 L1.25,33.75 C0.5625,33.75 0,33.1875 0,32.5 L0,20 C0,19.3125 0.5625,18.75 1.25,18.75 L28.75,18.75 C29.4375,18.75 30,19.3125 30,20 L30,32.5 Z" id="Shape" fill="#00B19E" style="fill: #00B19E;"></path>
                    <path d="M28.75,33.75 L5,33.75 L5,35 L28.75,35 C29.4375,35 30,34.4375 30,33.75 L30,32.5 C30,33.1875 29.4375,33.75 28.75,33.75 Z" id="Shape" fill="#CAD1D8" style="fill: #CAD1D8;"></path>
                </g>
                <path d="M11.2979464,29.765625 L11.2979464,28.359375 L7.58544642,28.359375 L7.58544642,26.660625 L11.2191964,26.660625 L11.2191964,25.254375 L7.58544642,25.254375 L7.58544642,23.668125 L11.2979464,23.668125 L11.2979464,22.261875 L5.98794642,22.261875 L5.98794642,29.765625 L11.2979464,29.765625 Z M13.8709821,29.765625 L12.2734821,29.765625 L12.2734821,22.261875 L15.7834821,22.261875 C17.4147321,22.261875 18.3034821,23.364375 18.3034821,24.680625 C18.3034821,25.985625 17.4034821,27.099375 15.7834821,27.099375 L13.8709821,27.099375 L13.8709821,29.765625 Z M15.5697321,25.693125 C16.1997321,25.693125 16.6722321,25.299375 16.6722321,24.680625 C16.6722321,24.050625 16.1997321,23.668125 15.5697321,23.668125 L13.8709821,23.668125 L13.8709821,25.693125 L15.5697321,25.693125 Z M21.6865179,29.900625 C23.7115179,29.900625 24.6902679,28.865625 24.6902679,27.493125 C24.6902679,24.691875 20.3815179,25.490625 20.3815179,24.298125 C20.3815179,23.848125 20.7640179,23.544375 21.4502679,23.544375 C22.2152679,23.544375 23.0252679,23.803125 23.6327679,24.365625 L24.5215179,23.195625 C23.7790179,22.509375 22.7890179,22.149375 21.5965179,22.149375 C19.8302679,22.149375 18.7502679,23.184375 18.7502679,24.433125 C18.7502679,27.256875 23.0702679,26.345625 23.0702679,27.673125 C23.0702679,28.100625 22.6427679,28.505625 21.7652679,28.505625 C20.7302679,28.505625 19.9090179,28.044375 19.3802679,27.493125 L18.5140179,28.708125 C19.2115179,29.416875 20.2465179,29.900625 21.6865179,29.900625 Z" id="EPS" fill="#FFFFFF" style="fill: #ffffff;"></path>
            </g>
        </g>
    </g>
</svg>