<?xml version="1.0" encoding="UTF-8"?>
<svg width="50px" height="54px" viewBox="0 0 50 54" version="1.1" xmlns="http://www.w3.org/2000/svg" xmlns:xlink="http://www.w3.org/1999/xlink">
    <!-- Generator: Sketch 46.2 (44496) - http://www.bohemiancoding.com/sketch -->
    <title>Cart icon</title>
    <desc>Created with Sketch.</desc>
    <defs></defs>
    <g id="Page-1" stroke="none" stroke-width="1" fill="none" fill-rule="evenodd">
        <g id="1920-пустая-страница" transform="translate(-935.000000, -428.000000)" fill-rule="nonzero" fill="#F0605F">
            <g id="Content" transform="translate(728.000000, 428.000000)">
                <g id="Cart-icon" transform="translate(207.000000, 0.000000)">
                    <path d="M14.1806374,35.4489887 L44.0282563,35.4489887 C47.3249252,35.4489887 50,32.754304 50,29.458326 L50,16.8423021 C50,16.1073881 49.4006056,15.5060948 48.6680125,15.5060948 C47.9354194,15.5060948 47.3360251,16.1073881 47.3360251,16.8423021 L47.3360251,29.4471909 C47.3360251,31.284476 45.8486391,32.765439 44.0282563,32.765439 L14.1806374,32.765439 C12.3491547,32.765439 10.8728686,31.2733409 10.8728686,29.4471909 L10.8728686,22.0201054 L10.8728686,13.71335 L10.8728686,12.6332491 L10.8728686,4.81643642 C10.8728686,4.77189617 10.8728686,4.71622087 10.8617687,4.67168063 C10.8617687,4.66054557 10.8617687,4.64941051 10.8617687,4.63827544 C10.8617687,4.60487026 10.8506688,4.57146508 10.8506688,4.54919496 C10.8506688,4.52692484 10.8395689,4.49351965 10.828469,4.47124953 C10.828469,4.46011447 10.8173691,4.43784435 10.8173691,4.42670929 C10.8062692,4.39330411 10.7951693,4.37103398 10.7840694,4.3376288 C10.7840694,4.32649374 10.7729695,4.31535868 10.7729695,4.30422362 C10.7618696,4.2819535 10.7507697,4.24854832 10.7396698,4.22627819 C10.7285699,4.21514313 10.7285699,4.20400807 10.71747,4.18173795 C10.7063701,4.15946783 10.6952702,4.13719771 10.6841703,4.11492759 C10.6730704,4.10379253 10.6619705,4.0815224 10.6508706,4.07038734 C10.6397708,4.05925228 10.6286709,4.03698216 10.617571,4.0258471 C10.6064711,4.00357698 10.5842713,3.98130686 10.5731714,3.9701718 C10.5620715,3.95903674 10.5509716,3.94790167 10.5398717,3.93676661 C10.5176719,3.91449649 10.506572,3.89222637 10.4843722,3.86995625 C10.4732723,3.85882119 10.4621724,3.84768613 10.4510725,3.84768613 C10.4288727,3.82541601 10.4066729,3.80314588 10.3844732,3.79201082 C10.3733733,3.78087576 10.3622734,3.7697407 10.3511735,3.7697407 C10.3289737,3.74747058 10.3067739,3.73633552 10.2845741,3.72520046 C10.2623743,3.70293034 10.2290746,3.69179528 10.2068748,3.68066021 C10.1957749,3.66952515 10.184675,3.66952515 10.1735751,3.65839009 C10.1291756,3.63611997 10.084776,3.61384985 10.0514763,3.59157973 L1.84865356,0.106305696 C1.17155994,-0.183205885 0.394567256,0.139710878 0.105969975,0.818949588 C-0.182627307,1.48705324 0.139269661,2.27764255 0.816363283,2.56715413 L8.19779375,5.69610622 L8.19779375,12.6332491 L8.19779375,13.71335 L8.19779375,22.0201054 L8.19779375,29.4471909 L8.19779375,38.8340472 C8.19779375,41.9741343 10.6064711,44.5463334 13.6700422,44.8024398 C13.0484481,45.7377849 12.6821515,46.862426 12.6821515,48.0761477 C12.6821515,51.3387205 15.3350265,54 18.5872959,54 C21.8395653,54 24.4924403,51.3387205 24.4924403,48.0761477 C24.4924403,46.8735611 24.1372436,45.760055 23.5267494,44.8247099 L37.6569163,44.8247099 C37.046422,45.760055 36.6912254,46.8735611 36.6912254,48.0761477 C36.6912254,51.3387205 39.3441004,54 42.5963697,54 C45.8486391,54 48.5015141,51.3387205 48.5015141,48.0761477 C48.5015141,44.8135748 45.8486391,42.1522953 42.5963697,42.1522953 L14.1806374,42.1522953 C12.3491547,42.1522953 10.8728686,40.6601972 10.8728686,38.8340472 L10.8728686,34.4356982 C11.8163597,35.0703966 12.9596489,35.4489887 14.1806374,35.4489887 Z M21.8284654,48.0761477 C21.8284654,49.8688924 20.3743791,51.3275854 18.5872959,51.3275854 C16.8002127,51.3275854 15.3461264,49.8688924 15.3461264,48.0761477 C15.3461264,46.2834029 16.8002127,44.8247099 18.5872959,44.8247099 C20.3743791,44.8247099 21.8284654,46.2834029 21.8284654,48.0761477 Z M45.8264393,48.0761477 C45.8264393,49.8688924 44.372353,51.3275854 42.5852698,51.3275854 C40.7981867,51.3275854 39.3441004,49.8688924 39.3441004,48.0761477 C39.3441004,46.2834029 40.7981867,44.8247099 42.5852698,44.8247099 C44.372353,44.8247099 45.8264393,46.2834029 45.8264393,48.0761477 Z" id="Shape"></path>
                    <path d="M23.3781851,26.5931142 C23.6249441,26.8604963 23.9575324,27 24.2901207,27 C24.622709,27 24.9445686,26.8604963 25.2020563,26.5931142 L29,22.4777554 L32.7979437,26.5931142 C33.0447027,26.8604963 33.377291,27 33.7098793,27 C34.0424676,27 34.3643272,26.8604963 34.6218149,26.5931142 C35.1260617,26.0467248 35.1260617,25.1632014 34.6218149,24.616812 L30.8238713,20.5014532 L34.6218149,16.3860943 C35.1260617,15.8397049 35.1260617,14.9561815 34.6218149,14.4097921 C34.1175682,13.8634026 33.3021904,13.8634026 32.7979437,14.4097921 L29,18.5251509 L25.2020563,14.4097921 C24.6978096,13.8634026 23.8824318,13.8634026 23.3781851,14.4097921 C22.8739383,14.9561815 22.8739383,15.8397049 23.3781851,16.3860943 L27.1761287,20.5014532 L23.3781851,24.616812 C22.8739383,25.1748267 22.8739383,26.0583501 23.3781851,26.5931142 Z" id="Shape"></path>
                </g>
            </g>
        </g>
    </g>
</svg>