<svg xmlns="http://www.w3.org/2000/svg" width="135" height="55" viewBox="0 0 135 55">
    <g fill="#4C4D4D" fill-rule="evenodd">
        <path d="M34.756 54h1.386v-1.926l.729-.756L38.824 54h1.665l-2.682-3.627 2.565-2.673h-1.674l-2.556 2.754V47.7h-1.386V54zm9.29.108c1.944 0 3.357-1.467 3.357-3.258 0-1.809-1.395-3.258-3.339-3.258s-3.357 1.467-3.357 3.258c0 1.809 1.395 3.258 3.339 3.258zm.018-1.278c-1.116 0-1.908-.9-1.908-1.98 0-1.098.774-1.98 1.89-1.98 1.116 0 1.908.9 1.908 1.98 0 1.098-.774 1.98-1.89 1.98zM48.746 54h2.997c1.422 0 2.358-.576 2.358-1.728 0-.864-.45-1.287-1.179-1.566.45-.252.828-.648.828-1.359 0-.45-.144-.801-.432-1.089-.36-.36-.927-.558-1.647-.558h-2.925V54zm1.35-3.753v-1.332h1.368c.585 0 .909.234.909.648 0 .486-.387.684-.999.684h-1.278zm0 2.538v-1.386h1.602c.711 0 1.026.261 1.026.684 0 .486-.369.702-.981.702h-1.647zM55.354 54h1.386v-1.89h1.053c1.413 0 2.547-.756 2.547-2.214 0-1.305-.909-2.196-2.412-2.196h-2.574V54zm1.386-3.123v-1.926h1.071c.693 0 1.125.333 1.125.954 0 .558-.405.972-1.098.972H56.74zM66.903 47.7h-1.287l-2.772 4.131V47.7h-1.368V54h1.305l2.754-4.131V54h1.368v-6.3zm1.622 6.3h1.386v-1.926l.729-.756L72.593 54h1.665l-2.682-3.627 2.565-2.673h-1.674l-2.556 2.754V47.7h-1.386V54zm12.107-6.3h-1.287l-2.772 4.131V47.7h-1.368V54h1.305l2.754-4.131V54h1.368v-6.3zm9.859 0h-1.287l-2.772 4.131V47.7h-1.368V54h1.305l2.754-4.131V54h1.368v-6.3zm13.081 0h-1.386v5.049h-2.25V47.7H98.55v5.049h-2.241V47.7h-1.386V54h8.649v-6.3zm3.089 6.3h1.386v-5.022h1.917V47.7h-5.22v1.278h1.917V54zm7.265.108c1.944 0 3.357-1.467 3.357-3.258 0-1.809-1.395-3.258-3.339-3.258s-3.357 1.467-3.357 3.258c0 1.809 1.395 3.258 3.339 3.258zm.018-1.278c-1.116 0-1.908-.9-1.908-1.98 0-1.098.774-1.98 1.89-1.98 1.116 0 1.908.9 1.908 1.98 0 1.098-.774 1.98-1.89 1.98zm4.682 1.17h1.386v-1.89h1.053c1.413 0 2.547-.756 2.547-2.214 0-1.305-.909-2.196-2.412-2.196h-2.574V54zm1.386-3.123v-1.926h1.071c.693 0 1.125.333 1.125.954 0 .558-.405.972-1.098.972h-1.098zM124.748 54h2.637c1.476 0 2.394-.819 2.394-2.115 0-1.233-.846-2.043-2.304-2.043h-1.341V47.7h-1.386V54zm2.61-2.97c.693 0 1.044.306 1.044.837 0 .585-.351.882-1.035.882h-1.233V51.03h1.224zm3.123 2.97h1.386v-6.3h-1.386V54zM46.365 37.369c.001.022-.015.045-.04.028-.024-.017 0-.038.01-.055l.03.027zm45.155 1.767a.04.04 0 0 1-.046.033l-.004-.001a.02.02 0 0 1-.01-.016c.016-.025.036-.041.062-.008v-.007l-.002-.001zM49.669 26.183c-.021-.007-.041-.011-.061-.019a.674.674 0 0 1 .149-.317.764.764 0 0 1-.092.34l.004-.004zm45.466 6.342l-.081.003c.037-.23.095-.455.178-.673.011-.036.023-.072.032-.105-.047.252-.058.522-.13.774zm.468-2.303c-.027.22-.084.435-.169.64.016-.216.046-.431.09-.644l.08.004zm-16.016 3.411c-.004-.104-.018-.304-.03-.499a4.464 4.464 0 0 0-.106-.749 2.187 2.187 0 0 0-.34-.797 1.129 1.129 0 0 0-.986-.506c-.49.015-.966.174-1.367.456-.14.088-.256.21-.339.353a2.953 2.953 0 0 0-.323.905c-.076.426-.14.853-.203 1.28a127.445 127.445 0 0 0-.397 2.994c-.05.43-.095.86-.139 1.288-.016.18-.005.362.034.54a.844.844 0 0 0 .826.706c.349.02.693-.09.966-.31.217-.182.411-.39.58-.62.38-.51.719-1.052 1.009-1.619.132-.25.24-.51.33-.778.084-.27.177-.538.265-.807.036-.112.073-.224.099-.339.1-.492.142-.996.12-1.498zM94.412 13.2a1.645 1.645 0 0 0-.745-1.447 2.756 2.756 0 0 0-.389-.22 4.837 4.837 0 0 0-.962-.312.359.359 0 0 0-.358.124 19.81 19.81 0 0 0-3.062 6.253 17.012 17.012 0 0 0-.597 3.548c.002.063-.006.126-.006.19 0 .063.038.094.106.062a6.964 6.964 0 0 0 1.12-.694 9.938 9.938 0 0 0 1.713-1.682 27.46 27.46 0 0 0 2.418-3.57c.25-.428.448-.883.597-1.355.1-.29.155-.591.164-.897h.001zM43.716 36.983a5.838 5.838 0 0 0-.276-1.66 17.107 17.107 0 0 0-.798-2.01 1.937 1.937 0 0 0-.111-.205 1.143 1.143 0 0 0-1.21-.549 3.237 3.237 0 0 0-2.053 1.264 3.95 3.95 0 0 0-.453.824c-.244.606-.434 1.23-.565 1.87a2.7 2.7 0 0 0-.046.936c.027.178.059.357.096.533.118.59.403 1.134.821 1.566.131.135.28.253.42.378.253.221.588.323.92.28.252-.027.496-.103.72-.223.47-.235.922-.507 1.352-.81.192-.138.37-.293.533-.464a2.26 2.26 0 0 0 .597-1.132c.04-.197.057-.398.052-.599v.001zM97.51 35.35c.06-.046.11-.083.158-.122a39.29 39.29 0 0 0 1.368-1.191 41.059 41.059 0 0 0 4.594-5.032c.322-.406.624-.83.902-1.269.271-.424.49-.88.652-1.356.115-.319.167-.657.153-.996a1.396 1.396 0 0 0-.242-.752.66.66 0 0 0-.257-.237 1.076 1.076 0 0 0-.619-.091 3.31 3.31 0 0 0-1.106.387 7.075 7.075 0 0 0-.846.557 11.395 11.395 0 0 0-2.311 2.277 9.455 9.455 0 0 0-1.423 2.83 34.402 34.402 0 0 0-.856 3.33 8.537 8.537 0 0 0-.195 1.516.181.181 0 0 0 .028.149zm-46.588-2.603c.005.148 0 .299.005.447-.012.1-.006.201.018.3a.468.468 0 0 0 .255-.18.643.643 0 0 0 .111-.12c.926-1.094 1.85-2.188 2.773-3.282.512-.598.99-1.223 1.436-1.871.427-.622.787-1.288 1.074-1.986.392-.924.57-1.925.521-2.928a2.545 2.545 0 0 0-.055-.396 1.16 1.16 0 0 0-.816-.897 1.615 1.615 0 0 0-1.218.077c-.27.126-.52.297-.736.504a5.32 5.32 0 0 0-.578.653 9.987 9.987 0 0 0-1.263 2.227 18.75 18.75 0 0 0-.924 2.915 22.03 22.03 0 0 0-.479 2.834c-.06.567-.108 1.131-.126 1.698l.002.005zm34.995 3.07c-.002.321.023.644.048.964.053.651.192 1.293.412 1.908.094.275.229.535.398.772.102.141.221.266.358.374a.204.204 0 0 0 .175.05c.046-.011.094-.013.14-.024a3.813 3.813 0 0 0 2.51-1.884c.216-.393.384-.81.501-1.243.3-1.108.51-2.239.627-3.38.069-.57.125-1.142.189-1.713.102-.913.198-1.83.265-2.746a3.445 3.445 0 0 0-.018-.753 1.696 1.696 0 0 0-.48-.977 2.42 2.42 0 0 0-.937-.574 4.869 4.869 0 0 0-1.417-.221.427.427 0 0 0-.284.098 1.212 1.212 0 0 0-.241.258 8.264 8.264 0 0 0-1.039 1.95 16.274 16.274 0 0 0-.822 3.262 37.086 37.086 0 0 0-.282 2.103c-.06.592-.098 1.18-.104 1.772l.001.004zM47.5 22.05a13.296 13.296 0 0 0-.298-2.598 12.137 12.137 0 0 0-1.57-3.87 5.312 5.312 0 0 0-.485-.665 2.386 2.386 0 0 0-.643-.545 1.55 1.55 0 0 0-.211-.097.242.242 0 0 0-.277.078.533.533 0 0 0-.12.201 4.246 4.246 0 0 0-.133.452c-.176.92-.339 1.839-.51 2.758l-.793 4.265c-.22 1.182-.437 2.364-.654 3.547-.297 1.591-.6 3.183-.822 4.787-.033.234-.06.468-.089.702a.082.082 0 0 0 .048.104.085.085 0 0 0 .04.004c.04-.002.08.003.117.002a4.638 4.638 0 0 0 1.417-.226 5.701 5.701 0 0 0 2.388-1.508 8.176 8.176 0 0 0 1.564-2.371 12.08 12.08 0 0 0 1.031-5.024v.004zm2.17 4.134a.764.764 0 0 0 .092-.339.674.674 0 0 0-.15.317c-.193.403-.387.808-.587 1.208a8.571 8.571 0 0 1-2.576 3.057 14.65 14.65 0 0 1-1.945 1.244.205.205 0 0 0-.146.11c.031.021.062.045.095.066a4.158 4.158 0 0 1 1.544 1.802c.412.924.58 1.938.486 2.946-.012.25-.06.5-.141.737-.013.017-.03.04-.01.056.022.015.036-.007.04-.029a.22.22 0 0 0 .118-.072c.227-.183.45-.367.676-.552.405-.326.8-.661 1.204-.986a.245.245 0 0 0 .101-.24 7.877 7.877 0 0 1-.03-.518c-.012-.74.014-1.478.077-2.216.056-.73.138-1.452.236-2.176a36.3 36.3 0 0 1 .391-2.25c.153-.725.334-1.447.525-2.165zM91.522 39.13a.837.837 0 0 0 .11-.034c.338-.166.678-.329 1.012-.503.753-.39 1.482-.82 2.193-1.282a.197.197 0 0 0 .11-.211c-.023-.29-.038-.581-.046-.87-.02-.738 0-1.477.06-2.213.041-.501.099-1 .172-1.496.07-.257.085-.523.129-.774a2.33 2.33 0 0 0-.032.105 3.444 3.444 0 0 0-.178.673c-.186.64-.379 1.28-.599 1.91a14.146 14.146 0 0 1-1.028 2.349 7.829 7.829 0 0 1-1.843 2.247.49.49 0 0 0-.069.063.116.116 0 0 0 .011.038c-.026-.032-.046-.016-.062.01a.02.02 0 0 0 .01.015.039.039 0 0 0 .05-.023l.002-.006-.002.002zM35.338 40.8a.223.223 0 0 0-.102-.124 2.602 2.602 0 0 1-.217-.251.617.617 0 0 1-.11-.556l.234-1.058 1.023-4.626 1.105-5.018c.268-1.22.537-2.439.808-3.66l1.028-4.648c.479-2.165.954-4.33 1.426-6.494l1.138-5.156c0-.014.007-.03.011-.046.04-.164.04-.163.218-.153.125.006.25.006.376.009.175.043.353.069.534.076.474.074.953.121 1.425.2a33.358 33.358 0 0 1 6.062 1.577c.25.094.495.203.732.325a2.81 2.81 0 0 1 1.498 1.923c.108.468.173.945.198 1.424.057.785.066 1.573.025 2.359a15.843 15.843 0 0 1-.746 4.104c-.026.081-.05.164-.074.248.001.01.005.019.01.027a.196.196 0 0 0 .117-.093c.227-.24.478-.458.749-.65.391-.28.84-.47 1.314-.552a3.35 3.35 0 0 1 .988-.013c1.03.161 2.008.56 2.857 1.167a3.653 3.653 0 0 1 1.442 2.067c.193.683.243 1.4.146 2.104a7.95 7.95 0 0 1-.638 2.187c-.42.933-.913 1.83-1.478 2.683a23.833 23.833 0 0 1-6.081 6.4c-.038.028-.077.053-.115.081a.115.115 0 0 0-.055.12c.067.468.177.928.332 1.374.086.237.201.461.342.67.35.53.946.845 1.58.836a3.158 3.158 0 0 0 1.6-.424A5.149 5.149 0 0 0 56.4 38.11c.281-.319.544-.654.784-1.005.442-.632.85-1.287 1.26-1.94.196-.322.37-.658.52-1.004.095-.224.212-.439.348-.641.185-.27.467-.456.788-.52.273-.044.554-.005.804.113.054.02.088.072.086.129a1.6 1.6 0 0 1-.03.4 36.68 36.68 0 0 0-.309 1.57c-.06.348-.096.7-.11 1.054-.02.425-.018.85.007 1.275.005.148.032.296.052.445a.99.99 0 0 0 .904.733.616.616 0 0 0 .336-.099c.266-.157.478-.392.605-.673a5.13 5.13 0 0 0 .228-.643c.381-1.345.7-2.707 1.001-4.074.348-1.58.687-3.164 1.043-4.742.376-1.712.85-3.4 1.416-5.06.264-.756.551-1.504.878-2.236.115-.259.234-.515.35-.773a.86.86 0 0 1 .489-.454 1.88 1.88 0 0 1 .857-.12 8.75 8.75 0 0 1 3.383 1.025.632.632 0 0 1 .384.818c-.144.78-.298 1.56-.438 2.34-.164.897-.326 1.794-.48 2.693-.122.72-.235 1.442-.34 2.166-.09.639-.163 1.28-.245 1.92-.087.71-.146 1.423-.196 2.138a38.766 38.766 0 0 0-.068 4.01c.006.186.053.372.048.562-.006.19.002.377.012.566.006.173.041.345.104.507a.38.38 0 0 0 .14.185c.149.113.356.113.505 0a.918.918 0 0 0 .226-.24c.105-.156.208-.319.306-.476.15-.25.294-.505.441-.752a.642.642 0 0 0 .094-.29c.047-.762.176-1.515.263-2.272.053-.469.102-.94.146-1.409.055-.594.108-1.19.154-1.785.038-.487.07-.973.096-1.459.04-.676.076-1.354.112-2.027.017-.312.03-.624.044-.942.032-.739.058-1.479.095-2.217.043-.895.094-1.79.143-2.687.014-.266.033-.534.05-.8.01-.165.041-.328.095-.485a.845.845 0 0 1 .542-.55c.18-.059.364-.103.55-.136a25.17 25.17 0 0 1 1.84-.295c.31-.04.626-.064.94-.095a2.04 2.04 0 0 1 .47.03c.212.04.396.168.509.353.056.105.08.224.064.342.001.489-.068.975-.205 1.443a111.773 111.773 0 0 0-.87 3.304c-.265 1.083-.51 2.173-.741 3.265a.413.413 0 0 0 .002.072.209.209 0 0 0 .154-.088 5.75 5.75 0 0 1 2.078-1.078c.28-.08.567-.134.857-.16.284-.024.57.016.836.117.425.145.815.377 1.148.68a3.726 3.726 0 0 1 1.029 1.719c.075.256.128.52.16.784a.137.137 0 0 0 .063.146c.077-.33.151-.657.229-.987.277-1.162.615-2.308.955-3.452.136-.46.295-.914.402-1.38.658-2.857 1.391-5.694 2.139-8.527.383-1.46.806-2.907 1.281-4.34.02-.059.038-.12.062-.178.255-.642.475-1.298.659-1.964.179-.613.412-1.205.635-1.8a7.66 7.66 0 0 1 .335-.804 4.56 4.56 0 0 1 .781-1.088.877.877 0 0 1 .474-.244c.247-.05.497-.08.75-.09a8.26 8.26 0 0 1 1.039.01c.96.063 1.91.202 2.86.335.88.118 1.752.297 2.61.533.605.168 1.197.383 1.768.645.243.112.476.243.699.391.567.385.952.987 1.063 1.663.103.6.066 1.215-.107 1.8-.13.46-.297.91-.5 1.344a20.72 20.72 0 0 1-2.295 3.84 36.584 36.584 0 0 1-2.941 3.416 46.568 46.568 0 0 1-5.204 4.658c-.069.053-.135.109-.202.156.017.068.064.049.097.052a7.027 7.027 0 0 1 2.32.59 4.58 4.58 0 0 1 1.696 1.323c.404.516.66 1.134.739 1.786a7.17 7.17 0 0 1-.024 1.741 4.782 4.782 0 0 0-.09.644c.085-.205.142-.42.17-.64.166-.59.34-1.179.547-1.754.428-1.208.97-2.37 1.618-3.475.309-.523.662-1.017 1.054-1.479a6.607 6.607 0 0 1 3.295-2.09 11.21 11.21 0 0 1 1.854-.357c.54-.066 1.083-.099 1.626-.097.276.004.55.039.818.105.507.125.963.409 1.301.807.189.214.345.454.466.712.328.701.462 1.477.39 2.248a8.727 8.727 0 0 1-.398 1.936 41.283 41.283 0 0 1-1.34 3.649 11.89 11.89 0 0 1-1.654 2.82c-.553.678-1.17 1.301-1.84 1.863a24.541 24.541 0 0 1-2.713 1.965c-.643.41-1.297.802-1.963 1.175a.412.412 0 0 0-.196.14c.255.267.56.482.897.634a3.24 3.24 0 0 0 3.259-.228c.235-.158.459-.332.672-.52a19.65 19.65 0 0 0 3.992-4.724 9.6 9.6 0 0 0 .597-1.176c.096-.233.16-.478.194-.728.115-.736.213-1.476.327-2.216a189.199 189.199 0 0 1 .806-4.79c.143-.789.297-1.57.447-2.363a2.16 2.16 0 0 1 .143-.448.907.907 0 0 1 .778-.57c.196-.023.393-.035.59-.035a9.583 9.583 0 0 1 2.723.386c.25.072.261.085.193.344a50.826 50.826 0 0 0-.836 3.894c-.08.441-.15.883-.225 1.326a.474.474 0 0 0-.005.093c.01.042.05.066.092.056a.077.077 0 0 0 .014-.004.8.8 0 0 0 .117-.113c.264-.303.523-.61.789-.911a19.13 19.13 0 0 1 1.429-1.474c.156-.145.318-.282.483-.417.42-.338.938-.533 1.476-.557.487-.036.976-.042 1.464-.019.236.012.47.056.693.134a.385.385 0 0 1 .273.553c-.11.315-.237.632-.354.947-.155.422-.305.843-.459 1.264-.06.171-.108.346-.143.524a.452.452 0 0 0 .03.3.164.164 0 0 0 .284.051c.301-.3.603-.603.898-.906l3.304-3.338c.06-.062.123-.122.186-.181.31-.317.77-.437 1.195-.314.696.165 1.382.365 2.058.6.415.147.824.305 1.228.477.174.074.34.164.497.27.323.22.538.567.592.954.046.328.038.66-.025.985-.167.953-.412 1.89-.734 2.803-.377 1.116-.836 2.204-1.294 3.29-.46 1.085-.909 2.142-1.297 3.238a18.856 18.856 0 0 0-.775 2.767 1.828 1.828 0 0 0-.025.728.71.71 0 0 0 .677.583 1.12 1.12 0 0 0 .67-.183 2.46 2.46 0 0 0 .511-.452c.306-.35.614-.697.91-1.055a25.38 25.38 0 0 0 3.116-4.715c.405-.8.759-1.624 1.057-2.47.034-.095.072-.191.114-.285a.495.495 0 0 1 .48-.316h.354c.311.002.63.005.944.004a1.03 1.03 0 0 1 .304.04c.121.033.199.15.182.274-.02.093-.045.183-.08.272a45.66 45.66 0 0 1-3.654 7.7c-.307.53-.655 1.038-1.039 1.517a6.097 6.097 0 0 1-1.75 1.493c-.534.305-1.122.501-1.731.58a3.978 3.978 0 0 1-2.849-.675 3.423 3.423 0 0 1-1.226-1.58 7.023 7.023 0 0 1-.38-1.409 16.77 16.77 0 0 1-.246-2.797 17.182 17.182 0 0 1 1.358-6.816l.097-.218a.062.062 0 0 0-.058-.102 1.427 1.427 0 0 0-.649.081 1.998 1.998 0 0 0-.85.616c-.179.22-.326.463-.439.724-.096.223-.192.449-.272.679a187.322 187.322 0 0 0-3.826 11.936l-.192.681c-.013.045-.026.092-.042.136a.085.085 0 0 1-.126.058 8.954 8.954 0 0 1-1.517-.858 3.77 3.77 0 0 1-.61-.555 2.37 2.37 0 0 1-.578-1.219 3.125 3.125 0 0 1-.007-.824c.05-.406.124-.808.216-1.207.375-1.791.778-3.577 1.206-5.358.425-1.74.874-3.474 1.35-5.202a1.55 1.55 0 0 0 .057-.227.178.178 0 0 0-.152-.2c-.009-.002-.017-.002-.026-.002a.88.88 0 0 0-.187.018 3.766 3.766 0 0 0-1.508.637 5.313 5.313 0 0 0-1.245 1.247c-.38.534-.707 1.101-.98 1.697-.361.76-.667 1.544-.916 2.348a3.35 3.35 0 0 0-.097.508c-.12.85-.245 1.697-.352 2.546-.065.515-.105 1.033-.147 1.551-.056.69-.104 1.381-.154 2.072-.034.463-.064.925-.1 1.387a29.22 29.22 0 0 1-.087.917c-.015.14-.055.278-.118.405a.605.605 0 0 1-.465.36c-.092.02-.186.03-.28.032a5.819 5.819 0 0 1-1.603-.256 2.43 2.43 0 0 1-.752-.39 1.512 1.512 0 0 1-.621-1.238c0-.434.04-.865.059-1.297.01-.252.034-.503.05-.754.035-.58.064-1.162.1-1.743a.178.178 0 0 0-.028-.168 1.457 1.457 0 0 0-.138.18c-.382.534-.77 1.057-1.193 1.553a9.49 9.49 0 0 1-1.389 1.345 5.735 5.735 0 0 1-2.283 1.078 6.314 6.314 0 0 1-1.36.14 6.923 6.923 0 0 1-3.144-.736 4.797 4.797 0 0 1-1.28-.917c-.093-.095-.182-.202-.267-.303-.084-.1-.076-.132-.25-.055-.395.177-.791.35-1.19.517-.873.375-1.768.697-2.68.965-.969.283-1.972.426-2.98.424-.324-.005-.647.007-.97.014a14.08 14.08 0 0 1-1.862-.085 6.813 6.813 0 0 1-1.16-.213 1.818 1.818 0 0 1-.968-.675 3.473 3.473 0 0 1-.473-.919 9.458 9.458 0 0 1-.454-1.875 13.414 13.414 0 0 1-.118-1.719c-.005-.392-.027-.784-.035-1.18-.068-.003-.052.05-.062.079-.204.71-.463 1.404-.771 2.076-.091.19-.187.38-.292.565a5.9 5.9 0 0 1-1.622 1.883c-.168.13-.329.269-.48.418a6.088 6.088 0 0 1-2.253 1.43 3.88 3.88 0 0 1-1.485.226 3 3 0 0 1-2.597-1.541 4.342 4.342 0 0 1-.48-1.297c-.002-.032-.009-.063-.015-.095a.058.058 0 0 0-.036-.056c-.03-.008-.037.016-.046.037l-.087.192a6.788 6.788 0 0 1-.56 1.038c-.148.222-.322.427-.517.61-.101.091-.188.191-.284.285a2.58 2.58 0 0 1-1.277.719 2.792 2.792 0 0 1-1.421-.082 3.542 3.542 0 0 1-1.654-1.086 5.378 5.378 0 0 1-.962-1.693 9.544 9.544 0 0 1-.39-1.407.52.52 0 0 0-.066-.206.716.716 0 0 0-.17.192c-.438.578-.906 1.13-1.404 1.657a8.845 8.845 0 0 1-1.887 1.521 6.585 6.585 0 0 1-1.716.709 1.65 1.65 0 0 1-1.56-.38 3.051 3.051 0 0 1-.524-.605 6.772 6.772 0 0 1-.403-.692l-.098-.179a.577.577 0 0 0-.145.156 8.533 8.533 0 0 1-1.704 1.626 3.99 3.99 0 0 1-1.3.65c-.38.103-.776.14-1.17.108a4.505 4.505 0 0 1-2.905-1.458 6.36 6.36 0 0 1-1.285-2.018c-.025-.057-.044-.118-.07-.175a.046.046 0 0 0-.057-.03 2.182 2.182 0 0 0-.164.131 30.956 30.956 0 0 1-2.77 2.163 17.221 17.221 0 0 1-2.983 1.663c-.49.214-1 .376-1.523.486a5.77 5.77 0 0 1-2.551-.075c-.122-.032-.248-.046-.37-.07a4.33 4.33 0 0 1-1.296-.49c-.293-.17-.592-.326-.897-.471a1.88 1.88 0 0 1-.34-.212c-.218-.17-.436-.337-.655-.505a.424.424 0 0 0-.06-.033l.002-.003zM7.888.306a.553.553 0 0 0 .315.081c.314.064.637.1.954.149.454.052.896.188 1.3.403.266.14.47.378.57.662.053.157.09.317.133.477.022.076.04.152.063.229.114.405.446.712.86.793.414.102.849.069 1.243-.094a3.5 3.5 0 0 0 .666-.355c.262-.175.515-.361.776-.538.245-.174.505-.322.78-.443.335-.14.699-.2 1.061-.174.376.017.725.205.943.512.152.22.267.464.337.723.082.27.16.543.243.812.054.181.134.353.236.512.243.397.719.586 1.169.465.302-.061.585-.196.824-.391.258-.208.505-.424.76-.636.139-.117.286-.222.441-.316.437-.267.969-.33 1.456-.172.541.143.99.522 1.223 1.032.059.137.105.279.14.424.046.175.089.352.143.523.051.175.144.335.27.466.162.165.381.26.612.266.35.009.692-.093.98-.292.163-.11.318-.231.463-.364.202-.18.403-.355.605-.524.159-.132.337-.234.529-.308a1.99 1.99 0 0 1 1.207-.056c.528.12.993.432 1.303.876.18.27.292.577.325.9.025.266.073.529.142.786.034.122.09.235.167.335.211.279.569.403.908.316.358-.073.685-.252.939-.514.201-.192.384-.393.577-.59.12-.127.25-.241.39-.344.361-.262.815-.364 1.253-.283.289.045.564.15.808.31.43.263.726.697.815 1.193.042.224.075.45.115.673.022.164.076.322.162.463.13.2.337.34.572.385.32.09.661.07.97-.053.179-.083.342-.195.486-.329.262-.249.538-.483.827-.702.21-.155.448-.265.7-.326.352-.084.722.008.994.246.452.36.691.926.637 1.501-.126-.002-.25-.003-.376-.008-.178-.01-.178-.012-.218.153 0 .014-.007.031-.01.046l-1.139 5.156c-.478 2.165-.953 4.329-1.426 6.494-.34 1.549-.683 3.1-1.028 4.648-.27 1.219-.54 2.438-.808 3.66-.369 1.675-.736 3.348-1.105 5.018l-1.023 4.625-.234 1.058a.617.617 0 0 0 .11.557c.066.088.139.171.217.25a.223.223 0 0 1 .102.125.351.351 0 0 1 .001.047c-.052.345-.047.313-.343.256-1.047-.202-2.084-.398-3.126-.597-.015 0-.031-.006-.046-.01a.092.092 0 0 1-.076-.123c.031-.153.065-.306.1-.46l.874-3.886c.271-1.194.541-2.389.81-3.584.258-1.126.517-2.252.778-3.376l.759-3.309.972-4.226.54-2.39a741.418 741.418 0 0 0 1.733-7.921c.077-.361.15-.723.225-1.085 0-.014.006-.031.008-.046.024-.164.005-.171-.137-.149-.279.045-.56.086-.838.134-.373.057-.745.118-1.119.176l-1.072.166a.688.688 0 0 0-.09.025.114.114 0 0 0-.087.098c-.042.215-.09.431-.13.646-.163.809-.324 1.618-.494 2.425a352.563 352.563 0 0 1-1.49 6.834c-.255 1.128-.52 2.251-.778 3.376-.37 1.616-.764 3.227-1.17 4.835a81.224 81.224 0 0 1-.92 3.414c-.148.505-.3 1.01-.495 1.5a1 1 0 0 1-.153.29.077.077 0 0 1-.06.029.082.082 0 0 1-.036-.04.142.142 0 0 1-.016-.067 8.533 8.533 0 0 0-.176-1.02l-.381-1.99a8001.648 8001.648 0 0 1-.733-3.747c-.16-.808-.322-1.618-.48-2.427-.159-.81-.313-1.62-.471-2.428-.138-.702-.283-1.402-.422-2.103-.125-.619-.24-1.249-.362-1.875-.142-.722-.287-1.445-.427-2.167-.118-.61-.234-1.219-.35-1.828a.58.58 0 0 1-.01-.094c-.006-.147-.042-.18-.188-.136-1.11.326-2.22.648-3.308 1.04a21.06 21.06 0 0 0-2.764 1.205 13.086 13.086 0 0 0-2.472 1.686 9.957 9.957 0 0 0-2.069 2.463 7.38 7.38 0 0 0-.968 2.715 5.96 5.96 0 0 0-.015 1.552c.07.626.258 1.235.555 1.79a3.603 3.603 0 0 0 2.636 1.91c.597.118 1.216.061 1.782-.165.221-.09.428-.213.61-.367a.13.13 0 0 0-.087-.115 4.514 4.514 0 0 1-1.57-2.723 5.482 5.482 0 0 1 .264-3.013c.32-.832.78-1.603 1.361-2.279.49-.576 1.039-1.1 1.637-1.562a.26.26 0 0 1 .167-.088c.052.138.089.282.109.428.178.797.353 1.594.527 2.393.173.8.345 1.59.517 2.373l.457 2.071c.175.79.35 1.581.523 2.373l.465 2.117a1626.46 1626.46 0 0 1 1.031 4.695l.523 2.373.472 2.14c.022.102.044.2.062.3a.052.052 0 0 1-.04.062l-.012.002a.485.485 0 0 1-.116-.007c-.65-.124-1.297-.248-1.945-.374l-2.197-.425-2.247-.429-2.27-.434-1.967-.381-2.245-.43c-.819-.157-1.637-.315-2.454-.474-.664-.127-1.326-.255-1.988-.38l-2.247-.431c-.701-.136-1.402-.286-2.107-.402-.342-.057-.671-.161-1.01-.227-.34-.066-.662-.137-.991-.214a2.38 2.38 0 0 1-.405-.128c-.198-.078-.4-.14-.607-.187-.22-.059-.44-.12-.66-.185-.006-.189-.003-.378-.005-.568a.075.075 0 0 0 .083-.064c.1-.4.312-.763.61-1.047.317-.317.654-.615 1.008-.892.308-.244.601-.507.879-.787.204-.207.375-.447.502-.71.179-.374.192-.805.035-1.19a2.907 2.907 0 0 0-.298-.56c-.132-.196-.266-.39-.396-.588a2.326 2.326 0 0 1-.278-.545 1.169 1.169 0 0 1 .269-1.244 2.43 2.43 0 0 1 .384-.347c.186-.133.37-.268.558-.398.216-.146.413-.316.59-.505a1.3 1.3 0 0 0 .367-.965 2.024 2.024 0 0 0-.212-.792c-.124-.263-.268-.517-.404-.774-.11-.204-.222-.4-.321-.603a2.576 2.576 0 0 1-.19-.532c-.13-.478.056-.987.464-1.268.16-.114.33-.213.51-.296.22-.104.438-.215.656-.322.12-.06.231-.136.33-.227.25-.209.397-.519.4-.845a1.945 1.945 0 0 0-.146-.758c-.121-.307-.264-.605-.412-.9a5.718 5.718 0 0 1-.282-.675A1.998 1.998 0 0 1 5 15.159c.003-.23.072-.454.2-.644.159-.227.365-.417.604-.558.278-.179.56-.35.84-.527.18-.113.34-.256.472-.423.215-.258.305-.596.247-.926a2.22 2.22 0 0 0-.35-.82c-.131-.203-.275-.4-.416-.598a5.28 5.28 0 0 1-.477-.759 1.742 1.742 0 0 1 .91-2.443c.168-.065.345-.107.515-.156.257-.074.515-.13.77-.225.146-.055.284-.132.407-.23a.941.941 0 0 0 .375-.73 1.54 1.54 0 0 0-.121-.667 2.483 2.483 0 0 0-.362-.578c-.173-.215-.374-.403-.565-.604-.193-.191-.365-.4-.515-.627a2.25 2.25 0 0 1-.269-1.57A6.306 6.306 0 0 1 7.841.307l.048-.001z"/>
    </g>
</svg>
