<?xml version="1.0" encoding="UTF-8"?>
<svg width="13px" height="13px" viewBox="0 0 13 13" version="1.1" xmlns="http://www.w3.org/2000/svg" xmlns:xlink="http://www.w3.org/1999/xlink">
    <!-- Generator: Sketch 47.1 (45422) - http://www.bohemiancoding.com/sketch -->
    <title>Shape</title>
    <desc>Created with Sketch.</desc>
    <defs></defs>
    <g id="Page-1" stroke="none" stroke-width="1" fill="none" fill-rule="evenodd" opacity="0.699999988">
        <g id="320-Задача-с-элементами-Copy-2" transform="translate(-11.000000, -347.000000)" fill-rule="nonzero" fill="#000000">
            <g id="Group-5" transform="translate(11.000000, 345.000000)">
                <path d="M6.49883783,2 C2.90960129,2 0,4.91053102 0,8.50023243 C0,12.089469 2.90960129,15 6.49883783,15 C10.0899338,15 13,12.0890041 13,8.50023243 C13,4.91053102 10.0899338,2 6.49883783,2 Z M9.29361702,10.2602181 L8.25835866,11.2940819 C8.25835866,11.2940819 6.62063293,9.53688539 6.49837297,9.53688539 C6.37797247,9.53688539 4.73978187,11.2940819 4.73978187,11.2940819 L3.70405864,10.2602181 C3.70405864,10.2602181 5.46311461,8.64620061 5.46311461,8.50255677 C5.46311461,8.35658859 3.70405864,6.7421062 3.70405864,6.7421062 L4.73978187,5.70591811 C4.73978187,5.70591811 6.3914536,7.46404434 6.49837297,7.46404434 C6.60622206,7.46404434 8.25835866,5.70591811 8.25835866,5.70591811 L9.29361702,6.7421062 C9.29361702,6.7421062 7.53409619,8.37983193 7.53409619,8.50255677 C7.53409619,8.61923833 9.29361702,10.2602181 9.29361702,10.2602181 Z" id="Shape"></path>
            </g>
        </g>
    </g>
</svg>