<?xml version="1.0" encoding="UTF-8"?>
<svg width="35px" height="40px" viewBox="0 0 35 40" version="1.1" xmlns="http://www.w3.org/2000/svg" xmlns:xlink="http://www.w3.org/1999/xlink">
    <!-- Generator: Sketch 48.1 (47250) - http://www.bohemiancoding.com/sketch -->
    <title>pdf</title>
    <desc>Created with Sketch.</desc>
    <defs></defs>
    <g id="UI" stroke="none" stroke-width="1" fill="none" fill-rule="evenodd" transform="translate(-2223.000000, -778.000000)">
        <g id="files-icons" transform="translate(1843.000000, 778.000000)" fill-rule="nonzero">
            <g id="pdf" transform="translate(380.000000, 0.000000)">
                <path d="M7.5,0 C6.125,0 5,1.125 5,2.5 L5,37.5 C5,38.875 6.125,40 7.5,40 L32.5,40 C33.875,40 35,38.875 35,37.5 L35,10 L25,0 L7.5,0 Z" id="Shape" fill="#E2E5E7" style="fill: #E2E5E7;"></path>
                <path d="M27.5,10 L35,10 L25,0 L25,7.5 C25,8.875 26.125,10 27.5,10 Z" id="Shape" fill="#B0B7BD" style="fill: #B0B7BD;"></path>
                <polygon id="Shape" fill="#CAD1D8" style="fill: #CAD1D8;" points="35 17.5 27.5 10 35 10"></polygon>
                <path d="M30,32.5 C30,33.1875 29.4375,33.75 28.75,33.75 L1.25,33.75 C0.5625,33.75 0,33.1875 0,32.5 L0,20 C0,19.3125 0.5625,18.75 1.25,18.75 L28.75,18.75 C29.4375,18.75 30,19.3125 30,20 L30,32.5 Z" id="Shape" fill="#CF3534" style="fill: #CF3534;"></path>
                <path d="M28.75,33.75 L5,33.75 L5,35 L28.75,35 C29.4375,35 30,34.4375 30,33.75 L30,32.5 C30,33.1875 29.4375,33.75 28.75,33.75 Z" id="Shape" fill="#CAD1D8" style="fill: #CAD1D8;"></path>
                <path d="M6.95013392,29.765625 L5.35263392,29.765625 L5.35263392,22.261875 L8.86263392,22.261875 C10.4938839,22.261875 11.3826339,23.364375 11.3826339,24.680625 C11.3826339,25.985625 10.4826339,27.099375 8.86263392,27.099375 L6.95013392,27.099375 L6.95013392,29.765625 Z M8.64888392,25.693125 C9.27888392,25.693125 9.75138392,25.299375 9.75138392,24.680625 C9.75138392,24.050625 9.27888392,23.668125 8.64888392,23.668125 L6.95013392,23.668125 L6.95013392,25.693125 L8.64888392,25.693125 Z M15.0581696,29.765625 L12.0994196,29.765625 L12.0994196,22.261875 L15.0581696,22.261875 C17.4094196,22.261875 19.0406696,23.758125 19.0406696,26.019375 C19.0406696,28.280625 17.4094196,29.765625 15.0581696,29.765625 Z M15.0581696,28.359375 C16.5431696,28.359375 17.4094196,27.290625 17.4094196,26.019375 C17.4094196,24.691875 16.5994196,23.668125 15.0581696,23.668125 L13.6969196,23.668125 L13.6969196,28.359375 L15.0581696,28.359375 Z M21.5012054,29.765625 L21.5012054,26.660625 L25.1349554,26.660625 L25.1349554,25.254375 L21.5012054,25.254375 L21.5012054,23.668125 L25.2137054,23.668125 L25.2137054,22.261875 L19.9037054,22.261875 L19.9037054,29.765625 L21.5012054,29.765625 Z" id="PDF" fill="#FFFFFF" style="fill: #ffffff;"></path>
            </g>
        </g>
    </g>
</svg>