<?xml version="1.0" encoding="UTF-8"?>
<svg width="16px" height="16px" viewBox="0 0 16 16" version="1.1" xmlns="http://www.w3.org/2000/svg" xmlns:xlink="http://www.w3.org/1999/xlink">
    <!-- Generator: Sketch 48.1 (47250) - http://www.bohemiancoding.com/sketch -->
    <title>Иконки выполнения/оплата</title>
    <desc>Created with Sketch.</desc>
    <defs></defs>
    <g id="1920-список-заказов" stroke="none" stroke-width="1" fill="none" fill-rule="evenodd" transform="translate(-789.000000, -913.000000)">
        <g id="Waiting-foe-payment" transform="translate(760.000000, 855.000000)" fill="#F1C000">
            <g id="Header" transform="translate(28.000000, 24.000000)">
                <g id="Иконки-выполнения/оплаты-нет-(вытянутая)" transform="translate(0.000000, 34.000000)">
                    <g id="Yellow-clock-icon" transform="translate(1.000000, 0.000000)">
                        <g id="timer-clock" fill-rule="nonzero">
                            <path d="M2.39542857,13.6594894 C2.75487831,14.0208511 3.14869841,14.3478298 3.57113228,14.6347234 C3.78243386,14.7779574 4.00118519,14.9119149 4.22603175,15.034383 C5.3517037,15.6491915 6.64177778,15.9986383 8.01278307,15.9986383 C8.18421164,15.9986383 8.35428571,15.9929362 8.52283598,15.9818723 C9.36626455,15.9285957 10.1741376,15.7425532 10.9259683,15.4442553 C11.2266667,15.3253617 11.5185608,15.1877447 11.7999577,15.0340426 C12.0253122,14.9111489 12.2435556,14.7779574 12.4548571,14.634383 C12.8774603,14.3469787 13.2711111,14.0209362 13.6305608,13.6590638 C15.0683598,12.2137021 15.9573333,10.2173617 15.9573333,8.01165957 C15.9573333,5.80621277 15.0683598,3.8092766 13.6305608,2.364 C13.2711111,2.00246809 12.8774603,1.67591489 12.4548571,1.38876596 C12.2435556,1.2452766 12.0248889,1.11182979 11.7999577,0.988851064 C11.5185608,0.83506383 11.2266667,0.698468085 10.9259683,0.578808511 C10.1745608,0.28093617 9.36626455,0.0945531915 8.52283598,0.0410212766 C8.35428571,0.0299574468 8.18421164,0.0246808511 8.01278307,0.0246808511 C6.6413545,0.0246808511 5.3517037,0.373957447 4.22603175,0.988510638 C4.00067725,1.11140426 3.78243386,1.24502128 3.57113228,1.38842553 C3.14835979,1.67548936 2.75445503,2.00204255 2.39542857,2.36365957 C0.95762963,3.80885106 0.0684021164,5.80544681 0.0684021164,8.01131915 C0.0688253968,10.2177021 0.95805291,12.2140426 2.39542857,13.6594894 Z M8.01320635,1.65634043 L8.01320635,7.64008511 L2.02954497,9.952 C0.970328042,5.80391489 3.86675132,1.65634043 8.01320635,1.65634043 Z" id="Shape"></path>
                        </g>
                    </g>
                </g>
            </g>
        </g>
    </g>
</svg>