<?xml version="1.0" encoding="UTF-8"?>
<svg width="35px" height="40px" viewBox="0 0 35 40" version="1.1" xmlns="http://www.w3.org/2000/svg" xmlns:xlink="http://www.w3.org/1999/xlink">
    <!-- Generator: Sketch 48.1 (47250) - http://www.bohemiancoding.com/sketch -->
    <title>cdr</title>
    <desc>Created with Sketch.</desc>
    <defs></defs>
    <g id="UI" stroke="none" stroke-width="1" fill="none" fill-rule="evenodd" transform="translate(-1970.000000, -778.000000)">
        <g id="files-icons" transform="translate(1843.000000, 778.000000)" fill-rule="nonzero">
            <g id="cdr" transform="translate(127.000000, 0.000000)">
                <g id="ai-copy-5">
                    <path d="M7.5,0 C6.125,0 5,1.125 5,2.5 L5,37.5 C5,38.875 6.125,40 7.5,40 L32.5,40 C33.875,40 35,38.875 35,37.5 L35,10 L25,0 L7.5,0 Z" id="Shape" fill="#E2E5E7" style="fill: #E2E5E7;"></path>
                    <path d="M27.5,10 L35,10 L25,0 L25,7.5 C25,8.875 26.125,10 27.5,10 Z" id="Shape" fill="#B0B7BD" style="fill: #B0B7BD;"></path>
                    <polygon id="Shape" fill="#CAD1D8" style="fill: #CAD1D8;" points="35 17.5 27.5 10 35 10"></polygon>
                    <path d="M30,32.5 C30,33.1875 29.4375,33.75 28.75,33.75 L1.25,33.75 C0.5625,33.75 0,33.1875 0,32.5 L0,20 C0,19.3125 0.5625,18.75 1.25,18.75 L28.75,18.75 C29.4375,18.75 30,19.3125 30,20 L30,32.5 Z" id="Shape" fill="#50C66B" style="fill: #50C66B;"></path>
                    <path d="M28.75,33.75 L5,33.75 L5,35 L28.75,35 C29.4375,35 30,34.4375 30,33.75 L30,32.5 C30,33.1875 29.4375,33.75 28.75,33.75 Z" id="Shape" fill="#CAD1D8" style="fill: #CAD1D8;"></path>
                </g>
                <path d="M8.30513392,29.900625 C9.95888392,29.900625 10.9038839,28.989375 11.4438839,28.055625 L10.0713839,27.391875 C9.75638392,28.010625 9.08138392,28.483125 8.30513392,28.483125 C6.94388392,28.483125 5.95388392,27.436875 5.95388392,26.019375 C5.95388392,24.601875 6.94388392,23.555625 8.30513392,23.555625 C9.08138392,23.555625 9.75638392,24.039375 10.0713839,24.646875 L11.4438839,23.971875 C10.9151339,23.038125 9.95888392,22.138125 8.30513392,22.138125 C6.05513392,22.138125 4.31138392,23.713125 4.31138392,26.019375 C4.31138392,28.325625 6.05513392,29.900625 8.30513392,29.900625 Z M15.0856696,29.765625 L12.1269196,29.765625 L12.1269196,22.261875 L15.0856696,22.261875 C17.4369196,22.261875 19.0681696,23.758125 19.0681696,26.019375 C19.0681696,28.280625 17.4369196,29.765625 15.0856696,29.765625 Z M15.0856696,28.359375 C16.5706696,28.359375 17.4369196,27.290625 17.4369196,26.019375 C17.4369196,24.691875 16.6269196,23.668125 15.0856696,23.668125 L13.7244196,23.668125 L13.7244196,28.359375 L15.0856696,28.359375 Z M26.0062054,29.765625 L24.1724554,29.765625 L22.6987054,27.099375 L21.5287054,27.099375 L21.5287054,29.765625 L19.9312054,29.765625 L19.9312054,22.261875 L23.4412054,22.261875 C25.0049554,22.261875 25.9612054,23.285625 25.9612054,24.680625 C25.9612054,26.008125 25.1287054,26.716875 24.3187054,26.908125 L26.0062054,29.765625 Z M23.2049554,25.693125 C23.8462054,25.693125 24.3299554,25.310625 24.3299554,24.680625 C24.3299554,24.050625 23.8462054,23.668125 23.2049554,23.668125 L21.5287054,23.668125 L21.5287054,25.693125 L23.2049554,25.693125 Z" id="CDR" fill="#FFFFFF" style="fill: #FFFFFF;"></path>
            </g>
        </g>
    </g>
</svg>