<?xml version="1.0" encoding="UTF-8"?>
<svg width="35px" height="40px" viewBox="0 0 35 40" version="1.1" xmlns="http://www.w3.org/2000/svg" xmlns:xlink="http://www.w3.org/1999/xlink">
    <!-- Generator: Sketch 48.1 (47250) - http://www.bohemiancoding.com/sketch -->
    <title>tiff</title>
    <desc>Created with Sketch.</desc>
    <defs></defs>
    <g id="UI" stroke="none" stroke-width="1" fill="none" fill-rule="evenodd" transform="translate(-2159.000000, -778.000000)">
        <g id="files-icons" transform="translate(1843.000000, 778.000000)" fill-rule="nonzero">
            <g id="tiff" transform="translate(316.000000, 0.000000)">
                <g id="ai-copy-4">
                    <path d="M7.5,0 C6.125,0 5,1.125 5,2.5 L5,37.5 C5,38.875 6.125,40 7.5,40 L32.5,40 C33.875,40 35,38.875 35,37.5 L35,10 L25,0 L7.5,0 Z" id="Shape" fill="#E2E5E7" style="fill: #E2E5E7;"></path>
                    <path d="M27.5,10 L35,10 L25,0 L25,7.5 C25,8.875 26.125,10 27.5,10 Z" id="Shape" fill="#B0B7BD" style="fill: #B0B7BD;"></path>
                    <polygon id="Shape" fill="#CAD1D8" style="fill: #CAD1D8;" points="35 17.5 27.5 10 35 10"></polygon>
                    <path d="M30,32.5 C30,33.1875 29.4375,33.75 28.75,33.75 L1.25,33.75 C0.5625,33.75 0,33.1875 0,32.5 L0,20 C0,19.3125 0.5625,18.75 1.25,18.75 L28.75,18.75 C29.4375,18.75 30,19.3125 30,20 L30,32.5 Z" id="Shape" fill="#7D00B1" style="fill: #7D00B1;"></path>
                    <path d="M28.75,33.75 L5,33.75 L5,35 L28.75,35 C29.4375,35 30,34.4375 30,33.75 L30,32.5 C30,33.1875 29.4375,33.75 28.75,33.75 Z" id="Shape" fill="#CAD1D8" style="fill: #CAD1D8;"></path>
                </g>
                <path d="M8.39142856,29.765625 L8.39142856,23.668125 L10.5739286,23.668125 L10.5739286,22.261875 L4.58892856,22.261875 L4.58892856,23.668125 L6.78267856,23.668125 L6.78267856,29.765625 L8.39142856,29.765625 Z M12.9219643,29.765625 L12.9219643,22.261875 L11.3244643,22.261875 L11.3244643,29.765625 L12.9219643,29.765625 Z M15.73125,29.765625 L15.73125,26.660625 L19.365,26.660625 L19.365,25.254375 L15.73125,25.254375 L15.73125,23.668125 L19.44375,23.668125 L19.44375,22.261875 L14.13375,22.261875 L14.13375,29.765625 L15.73125,29.765625 Z M21.8817857,29.765625 L21.8817857,26.660625 L25.5155357,26.660625 L25.5155357,25.254375 L21.8817857,25.254375 L21.8817857,23.668125 L25.5942857,23.668125 L25.5942857,22.261875 L20.2842857,22.261875 L20.2842857,29.765625 L21.8817857,29.765625 Z" id="TIFF" fill="#FFFFFF" style="fill: #FFFFFF;"></path>
            </g>
        </g>
    </g>
</svg>