<?xml version="1.0" encoding="UTF-8"?>
<svg width="13px" height="13px" viewBox="0 0 13 13" version="1.1" xmlns="http://www.w3.org/2000/svg" xmlns:xlink="http://www.w3.org/1999/xlink">
    <!-- Generator: Sketch 47.1 (45422) - http://www.bohemiancoding.com/sketch -->
    <title>Shape</title>
    <desc>Created with Sketch.</desc>
    <defs></defs>
    <g id="Page-1" stroke="none" stroke-width="1" fill="none" fill-rule="evenodd" opacity="0.699999988">
        <g id="320-Задача-с-элементами-Copy-2" transform="translate(-11.000000, -304.000000)" fill="#000000">
            <g id="Group-6" transform="translate(11.000000, 301.000000)">
                <path d="M12.9593217,8.77825082 C12.9387642,8.59551112 12.7256916,8.45819031 12.5414479,8.45819031 C11.9457637,8.45819031 11.4171696,8.10843098 11.195487,7.56751565 C10.9690158,7.01349222 11.1150467,6.36737339 11.5589922,5.96015117 C11.698735,5.83240751 11.715713,5.61856627 11.598511,5.47002375 C11.293631,5.08287484 10.9471039,4.73316387 10.5687489,4.43008103 C10.4205897,4.31118898 10.2032121,4.32773132 10.0747397,4.46998581 C9.68729107,4.89907101 8.99133458,5.05854502 8.45355002,4.83415924 C7.89390194,4.59874523 7.54098989,4.03166205 7.57552652,3.42293279 C7.58689361,3.23172844 7.44715089,3.06548271 7.25652227,3.04328114 C6.77097798,2.98712424 6.28117708,2.98538294 5.79418167,3.03941159 C5.60572973,3.06021044 5.46598701,3.22253825 5.47232356,3.41132413 C5.49350989,4.01405558 5.13634123,4.57122303 4.58225577,4.79817239 C4.0509045,5.01520601 3.35983344,4.85708635 2.9731587,4.43182233 C2.84536352,4.29174447 2.63151701,4.27452495 2.48263224,4.39056321 C2.09305526,4.69620963 1.73874046,5.04621082 1.43105495,5.43016734 C1.31104744,5.5794354 1.32870271,5.79579185 1.46984818,5.92421269 C1.9222586,6.33390175 2.06833787,6.98563143 1.83330503,7.54603963 C1.60891372,8.08032834 1.0541027,8.4246703 0.418948079,8.4246703 C0.212840864,8.41804369 0.0660360304,8.55638025 0.0434953211,8.74376342 C-0.0136787525,9.23210117 -0.0143559412,9.72967748 0.0406898251,10.2219815 C0.0611022271,10.4054951 0.280656474,10.5416067 0.466931734,10.5416067 C1.03296474,10.5271443 1.57640866,10.8775808 1.8043794,11.4323297 C2.03162457,11.9863532 1.8855453,12.6320851 1.44092255,13.0396459 C1.30185702,13.1673895 1.28420174,13.3808922 1.40140375,13.5294347 C1.70342991,13.9141168 2.05000541,14.2641663 2.42971478,14.5697644 C2.57864792,14.6897689 2.7953483,14.6728396 2.92444949,14.5305851 C3.31334928,14.1004358 4.0092574,13.941252 4.54491365,14.1660731 C5.10596448,14.4007616 5.45887653,14.9677964 5.4243399,15.5768642 C5.41306955,15.7681653 5.55348946,15.9347013 5.74334415,15.9565643 C5.99172728,15.9855375 6.24160991,16 6.49216972,16 C6.73000807,16 6.96789478,15.9869403 7.20573312,15.9604822 C7.39423343,15.9396833 7.53387941,15.7773555 7.52754286,15.5882311 C7.50572771,14.9858382 7.86352519,14.4286707 8.41688509,14.2021083 C8.95181579,13.9836236 9.63998461,14.143533 10.0267077,14.5683617 C10.1552285,14.7081493 10.3675755,14.7250302 10.5172826,14.6093789 C10.906134,14.304458 11.2597232,13.9547471 11.5688598,13.5697264 C11.688819,13.420797 11.6718893,13.2041019 11.5300182,13.0757295 C11.0776078,12.6660404 10.930803,12.014214 11.1658358,11.4541927 C11.3867928,10.9270143 11.920998,10.5730468 12.4955926,10.5730468 L12.5759845,10.5751267 C12.7623565,10.5902664 12.9338304,10.4467059 12.9564195,10.2564689 C13.0136903,9.76769586 13.0143675,9.27055487 12.9593217,8.77825082 Z M6.51030871,11.6818676 C5.31468371,11.6818676 4.34214401,10.7093519 4.34214401,9.51375636 C4.34214401,8.31820919 5.31468371,7.34564509 6.51030871,7.34564509 C7.70588534,7.34564509 8.67842504,8.31820919 8.67842504,9.51375636 C8.67842504,10.7093519 7.70588534,11.6818676 6.51030871,11.6818676 Z" id="Shape"></path>
            </g>
        </g>
    </g>
</svg>