<?xml version="1.0" encoding="UTF-8"?>
<svg width="35px" height="40px" viewBox="0 0 35 40" version="1.1" xmlns="http://www.w3.org/2000/svg" xmlns:xlink="http://www.w3.org/1999/xlink">
    <!-- Generator: Sketch 48.1 (47250) - http://www.bohemiancoding.com/sketch -->
    <title>doc</title>
    <desc>Created with Sketch.</desc>
    <defs></defs>
    <g id="UI" stroke="none" stroke-width="1" fill="none" fill-rule="evenodd" transform="translate(-1906.000000, -778.000000)">
        <g id="files-icons" transform="translate(1843.000000, 778.000000)" fill-rule="nonzero">
            <g id="doc" transform="translate(63.000000, 0.000000)">
                <g id="ai-copy-6">
                    <path d="M7.5,0 C6.125,0 5,1.125 5,2.5 L5,37.5 C5,38.875 6.125,40 7.5,40 L32.5,40 C33.875,40 35,38.875 35,37.5 L35,10 L25,0 L7.5,0 Z" id="Shape" fill="#E2E5E7" style="fill: #E2E5E7;"></path>
                    <path d="M27.5,10 L35,10 L25,0 L25,7.5 C25,8.875 26.125,10 27.5,10 Z" id="Shape" fill="#B0B7BD" style="fill: #B0B7BD;"></path>
                    <polygon id="Shape" fill="#CAD1D8" style="fill: #CAD1D8;" points="35 17.5 27.5 10 35 10"></polygon>
                    <path d="M30,32.5 C30,33.1875 29.4375,33.75 28.75,33.75 L1.25,33.75 C0.5625,33.75 0,33.1875 0,32.5 L0,20 C0,19.3125 0.5625,18.75 1.25,18.75 L28.75,18.75 C29.4375,18.75 30,19.3125 30,20 L30,32.5 Z" id="Shape" fill="#237BE3" style="fill: #237BE3;"></path>
                    <path d="M28.75,33.75 L5,33.75 L5,35 L28.75,35 C29.4375,35 30,34.4375 30,33.75 L30,32.5 C30,33.1875 29.4375,33.75 28.75,33.75 Z" id="Shape" fill="#CAD1D8" style="fill: #CAD1D8;"></path>
                </g>
                <path d="M6.94388392,29.765625 L3.98513392,29.765625 L3.98513392,22.261875 L6.94388392,22.261875 C9.29513392,22.261875 10.9263839,23.758125 10.9263839,26.019375 C10.9263839,28.280625 9.29513392,29.765625 6.94388392,29.765625 Z M6.94388392,28.359375 C8.42888392,28.359375 9.29513392,27.290625 9.29513392,26.019375 C9.29513392,24.691875 8.48513392,23.668125 6.94388392,23.668125 L5.58263392,23.668125 L5.58263392,28.359375 L6.94388392,28.359375 Z M15.3444196,29.900625 C13.0831696,29.900625 11.4294196,28.280625 11.4294196,26.019375 C11.4294196,23.758125 13.0831696,22.138125 15.3444196,22.138125 C17.6169196,22.138125 19.2706696,23.758125 19.2706696,26.019375 C19.2706696,28.280625 17.6169196,29.900625 15.3444196,29.900625 Z M15.3444196,28.483125 C16.7281696,28.483125 17.6281696,27.414375 17.6281696,26.019375 C17.6281696,24.613125 16.7281696,23.555625 15.3444196,23.555625 C13.9606696,23.555625 13.0719196,24.613125 13.0719196,26.019375 C13.0719196,27.414375 13.9606696,28.483125 15.3444196,28.483125 Z M23.7562054,29.900625 C25.4099554,29.900625 26.3549554,28.989375 26.8949554,28.055625 L25.5224554,27.391875 C25.2074554,28.010625 24.5324554,28.483125 23.7562054,28.483125 C22.3949554,28.483125 21.4049554,27.436875 21.4049554,26.019375 C21.4049554,24.601875 22.3949554,23.555625 23.7562054,23.555625 C24.5324554,23.555625 25.2074554,24.039375 25.5224554,24.646875 L26.8949554,23.971875 C26.3662054,23.038125 25.4099554,22.138125 23.7562054,22.138125 C21.5062054,22.138125 19.7624554,23.713125 19.7624554,26.019375 C19.7624554,28.325625 21.5062054,29.900625 23.7562054,29.900625 Z" id="DOC" fill="#FFFFFF" style="fill: #ffffff;"></path>
            </g>
        </g>
    </g>
</svg>