<?xml version="1.0" encoding="UTF-8"?>
<svg width="8px" height="8px" viewBox="0 0 8 8" version="1.1" xmlns="http://www.w3.org/2000/svg" xmlns:xlink="http://www.w3.org/1999/xlink">
    <!-- Generator: Sketch 48.1 (47250) - http://www.bohemiancoding.com/sketch -->
    <title>Group 12</title>
    <desc>Created with Sketch.</desc>
    <defs></defs>
    <g id="1920-Добавление-товара" stroke="none" stroke-width="1" fill="none" fill-rule="evenodd" transform="translate(-656.000000, -598.000000)" opacity="0.900000036">
        <g id="Group-3" transform="translate(530.000000, 143.000000)" fill="#000000">
            <g id="Filter" transform="translate(30.000000, 176.000000)">
                <g id="Group-5" transform="translate(0.000000, 182.000000)">
                    <g id="Group-2-Copy-6" transform="translate(0.000000, 28.000000)">
                        <g id="Group-12" opacity="0.300000012" transform="translate(96.000000, 69.000000)">
                            <g id="Group-11">
                                <path d="M3.24083333,2.85849575 L6.10783333,0.157959451 C6.25994444,0.014911707 6.25994444,-0.21734467 6.10783333,-0.3606017 L5.83255556,-0.619908437 C5.6805,-0.763060824 5.43405556,-0.763060824 5.282,-0.619908437 L1.864,2.59924133 C1.712,2.74239372 1.712,2.97454545 1.864,3.11780249 L5.282,6.33679529 C5.43405556,6.48 5.6805,6.48 5.83255556,6.33679529 L6.10783333,6.07754088 C6.25994444,5.93428385 6.25994444,5.70202747 6.10783333,5.55897973 L3.24083333,2.85849575 L3.24083333,2.85849575 Z" id="Shape" transform="translate(3.985958, 2.858463) rotate(-90.000000) translate(-3.985958, -2.858463) "></path>
                                <path d="M3.24083333,5.76758666 L6.10783333,3.06705036 C6.25994444,2.92400262 6.25994444,2.69174624 6.10783333,2.54848921 L5.83255556,2.28918247 C5.6805,2.14603009 5.43405556,2.14603009 5.282,2.28918247 L1.864,5.50833224 C1.712,5.65148463 1.712,5.88363636 1.864,6.02689339 L5.282,9.2458862 C5.43405556,9.38909091 5.6805,9.38909091 5.83255556,9.2458862 L6.10783333,8.98663179 C6.25994444,8.84337475 6.25994444,8.61111838 6.10783333,8.46807063 L3.24083333,5.76758666 L3.24083333,5.76758666 Z" id="Shape" transform="translate(3.985958, 5.767554) rotate(-270.000000) translate(-3.985958, -5.767554) "></path>
                            </g>
                        </g>
                    </g>
                </g>
            </g>
        </g>
    </g>
</svg>