<?xml version="1.0" encoding="UTF-8"?>
<svg width="16px" height="16px" viewBox="0 0 16 16" version="1.1" xmlns="http://www.w3.org/2000/svg" xmlns:xlink="http://www.w3.org/1999/xlink">
    <!-- Generator: Sketch 48.1 (47250) - http://www.bohemiancoding.com/sketch -->
    <title>layer</title>
    <desc>Created with Sketch.</desc>
    <defs></defs>
    <g id="1920-Добавление-товара" stroke="none" stroke-width="1" fill="none" fill-rule="evenodd" transform="translate(-931.000000, -281.000000)" opacity="0.5">
        <g id="Group-3" transform="translate(530.000000, 143.000000)" fill="#000000">
            <g id="Group-2" transform="translate(290.000000, 89.000000)">
                <g id="Group-19" transform="translate(100.000000, 42.000000)">
                    <g id="layer" transform="translate(11.000000, 7.000000)">
                        <g id="Layer_1">
                            <g id="Group">
                                <path d="M0.308179337,5.88450682 L7.62722807,10.5420663 C7.73635867,10.6112749 7.86077193,10.6458635 7.98453021,10.6458635 C8.10894347,10.6458635 8.23270175,10.6112749 8.34183236,10.5420663 L15.6608811,5.88450682 C15.8525068,5.76208967 15.9689357,5.55050292 15.9689357,5.32294737 C15.9689357,5.09539181 15.8525068,4.88380507 15.6608811,4.76204288 L8.34180117,0.103797271 C8.12357115,-0.034588694 7.8454269,-0.034588694 7.62719688,0.103797271 L0.308179337,4.76204288 C0.116553606,4.88380507 0.000124756336,5.09539181 0.000124756336,5.32294737 C9.35672523e-05,5.55050292 0.116553606,5.76208967 0.308179337,5.88450682 L0.308179337,5.88450682 Z" id="Shape"></path>
                                <path d="M15.6609747,10.0846472 L13.6003431,8.77320858 L9.0565614,11.6649045 C8.73384795,11.8691618 8.36391423,11.9769513 7.98465497,11.9769513 C7.60539571,11.9769513 7.23546199,11.8691618 6.91474464,11.6655595 L2.36893567,8.77320858 L0.308304094,10.0846472 C0.116678363,10.2070643 0.000249512668,10.4186511 0.000249512668,10.6462066 C0.000249512668,10.8737622 0.116678363,11.0853489 0.308304094,11.2071111 L7.62735283,15.8653567 C7.73648343,15.9345653 7.86024172,15.969154 7.98465497,15.969154 C8.10841326,15.969154 8.23282651,15.9345653 8.34195712,15.8653567 L15.6609747,11.2071111 C15.8526004,11.0853489 15.9690292,10.8737622 15.9690292,10.6462066 C15.9690604,10.4186511 15.8526004,10.2070643 15.6609747,10.0846472 L15.6609747,10.0846472 Z" id="Shape"></path>
                            </g>
                        </g>
                    </g>
                </g>
            </g>
        </g>
    </g>
</svg>