<?xml version="1.0" encoding="UTF-8"?>
<svg width="37px" height="45px" viewBox="0 0 37 45" version="1.1" xmlns="http://www.w3.org/2000/svg" xmlns:xlink="http://www.w3.org/1999/xlink">
    <!-- Generator: Sketch 48.1 (47250) - http://www.bohemiancoding.com/sketch -->
    <title>Group 3</title>
    <desc>Created with Sketch.</desc>
    <defs></defs>
    <g id="Смена-сотрудника" stroke="none" stroke-width="1" fill="none" fill-rule="evenodd" transform="translate(-947.000000, -386.000000)">
        <g id="Group-3" transform="translate(947.000000, 386.000000)" fill-rule="nonzero">
            <g id="user-28">
                <ellipse id="Oval" fill="#B6B6B6" cx="12.8134187" cy="7.78377193" rx="7.85453349" ry="7.78377193"></ellipse>
                <path d="M0.0860382775,36.5375439 L0.0860382775,24.9741228 C0.0959521531,21.6514035 2.81138038,18.9604386 6.16430622,18.950614 L19.4625311,18.950614 C22.8154569,18.9604386 25.5308852,21.6514035 25.540799,24.9741228 L25.540799,36.5375439 L0.0860382775,36.5375439 Z" id="Shape" fill="#B6B6B6"></path>
                <ellipse id="Oval" fill="#D64544" cx="26.6449569" cy="34.7357895" rx="10.2697129" ry="10.177193"></ellipse>
                <g id="Group-5" transform="translate(21.000000, 29.000000)" fill="#FFFFFF">
                    <g id="refresh-round-symbol">
                        <path d="M3.27806897,3.1752 C4.60841379,1.8892 6.64303448,1.7056 8.18027586,2.6144 C7.65889655,3.1128 7.05848276,3.6952 7.05848276,3.6952 C6.63765517,4.1828 7.1102069,4.464 7.3502069,4.4568 L10.1590345,4.456 C10.3071724,4.456 10.4284138,4.4568 10.4284138,4.4568 C10.4284138,4.4568 10.5508966,4.4568 10.6994483,4.4568 L11.244,4.4568 C11.3925517,4.4568 11.5133793,4.3396 11.5137931,4.1956 L11.5137931,0.4616 C11.5311724,0.12 11.1430345,-0.2112 10.7424828,0.17 C10.7424828,0.17 10.0795862,0.7944 9.62193103,1.2328 C7.28151724,-0.42 3.98193103,-0.2332 1.86703448,1.8112 C0.633103448,3.004 0.0575172414,4.5864 0.12662069,6.1492 L2.12524138,6.1492 C2.05448276,5.0816 2.43351724,3.9916 3.27806897,3.1752 Z" id="Shape"></path>
                        <path d="M9.92565517,5.5 C9.99641379,6.5676 9.61737931,7.6576 8.77282759,8.474 C7.44206897,9.76 5.40827586,9.9436 3.87103448,9.0348 C4.39158621,8.5364 4.99241379,7.9536 4.99241379,7.9536 C5.41282759,7.466 4.94068966,7.1848 4.70068966,7.1928 L1.89144828,7.1936 C1.74331034,7.1936 1.62206897,7.1928 1.62206897,7.1928 C1.62206897,7.1928 1.49958621,7.1928 1.35103448,7.1928 L0.805241379,7.1928 C0.656689655,7.1928 0.535862069,7.31 0.535448276,7.4536 L0.535448276,11.1872 C0.518482759,11.5288 0.906206897,11.86 1.30717241,11.4788 C1.30717241,11.4788 1.96965517,10.8544 2.42772414,10.4164 C4.7697931,12.0704 8.06855172,11.8828 10.1834483,9.8388 C11.4165517,8.6464 11.9929655,7.0636 11.9242759,5.5008 L9.92565517,5.5 Z" id="Shape"></path>
                    </g>
                </g>
            </g>
        </g>
    </g>
</svg>