<?xml version="1.0" encoding="UTF-8"?>
<svg width="39px" height="46px" viewBox="0 0 39 46" version="1.1" xmlns="http://www.w3.org/2000/svg" xmlns:xlink="http://www.w3.org/1999/xlink">
    <!-- Generator: Sketch 48.1 (47250) - http://www.bohemiancoding.com/sketch -->
    <title>Group 5</title>
    <desc>Created with Sketch.</desc>
    <defs></defs>
    <g id="1920-Заказ-от-лица-менеджера" stroke="none" stroke-width="1" fill="none" fill-rule="evenodd" transform="translate(-1203.000000, -1078.000000)">
        <g id="docs" transform="translate(1180.000000, 1048.000000)" fill-rule="nonzero">
            <g id="Docs">
                <g id="Group-5" transform="translate(23.000000, 30.000000)">
                    <g id="attach">
                        <path d="M38.2553157,3.11921248 L7.38717512,3.11921248 C6.98243779,3.11921248 6.65453226,3.44650292 6.65453226,3.8502807 L6.65453226,41.2803821 C6.65453226,41.6841598 6.98243779,42.0114503 7.38717512,42.0114503 L38.2553157,42.0114503 C38.660053,42.0114503 38.9879585,41.6841598 38.9879585,41.2803821 L38.9879585,3.85019103 C38.9879585,3.44650292 38.660053,3.11921248 38.2553157,3.11921248 Z" id="Shape" fill="#F0605F"></path>
                        <path d="M7.38717512,3.11921248 C6.98243779,3.11921248 6.65453226,3.44650292 6.65453226,3.8502807 L6.65453226,41.2803821 C6.65453226,41.6841598 6.98243779,42.0114503 7.38717512,42.0114503 L23.0166498,42.0114503 L23.0166498,3.11921248 L7.38717512,3.11921248 Z" id="Shape" fill="#F0605F"></path>
                        <path d="M29.6591406,9.7474269 L0.744684332,9.7474269 C0.339947005,9.7474269 0.0120414747,10.0747173 0.0120414747,10.4784951 L0.0120414747,37.7712904 C0.0120414747,37.965154 0.0892327189,38.1511267 0.226541475,38.28823 L7.65055991,45.6962924 C7.78795853,45.8334854 7.97424194,45.9104211 8.16870276,45.9104211 L29.6592304,45.9104211 C30.0639677,45.9104211 30.3918733,45.5831306 30.3918733,45.1793528 L30.3918733,10.4784951 C30.3917834,10.0747173 30.0638779,9.7474269 29.6591406,9.7474269 Z" id="Shape" fill="#E2E5E7"></path>
                        <path d="M0.744684332,9.7474269 C0.339947005,9.7474269 0.0120414747,10.0747173 0.0120414747,10.4784951 L0.0120414747,37.7712904 C0.0120414747,37.965154 0.0892327189,38.1511267 0.226541475,38.28823 L7.65055991,45.6962924 C7.78795853,45.8334854 7.97424194,45.9104211 8.16870276,45.9104211 L15.2020023,45.9104211 L15.2020023,9.7474269 L0.744684332,9.7474269 Z" id="Shape" fill="#E2E5E7"></path>
                        <g id="Group" transform="translate(5.032258, 14.795322)" fill="#B0B7BD">
                            <path d="M19.938076,1.4828499 L0.791951613,1.4828499 C0.387214286,1.4828499 0.0593087558,1.15555945 0.0593087558,0.751781676 C0.0593087558,0.348003899 0.387214286,0.0207134503 0.791951613,0.0207134503 L19.938076,0.0207134503 C20.3428134,0.0207134503 20.6707189,0.348003899 20.6707189,0.751781676 C20.6707189,1.15555945 20.3427235,1.4828499 19.938076,1.4828499 Z" id="Shape"></path>
                            <path d="M19.938076,7.72118519 L0.791951613,7.72118519 C0.387214286,7.72118519 0.0593087558,7.39389474 0.0593087558,6.99011696 C0.0593087558,6.58633918 0.387214286,6.25904873 0.791951613,6.25904873 L19.938076,6.25904873 C20.3428134,6.25904873 20.6707189,6.58633918 20.6707189,6.99011696 C20.6707189,7.39389474 20.3427235,7.72118519 19.938076,7.72118519 Z" id="Shape"></path>
                            <path d="M19.938076,13.9595205 L0.791951613,13.9595205 C0.387214286,13.9595205 0.0593087558,13.63223 0.0593087558,13.2284522 C0.0593087558,12.8246745 0.387214286,12.497384 0.791951613,12.497384 L19.938076,12.497384 C20.3428134,12.497384 20.6707189,12.8246745 20.6707189,13.2284522 C20.6707189,13.63223 20.3427235,13.9595205 19.938076,13.9595205 Z" id="Shape"></path>
                            <path d="M19.938076,20.1979454 L0.791951613,20.1979454 C0.387214286,20.1979454 0.0593087558,19.870655 0.0593087558,19.4668772 C0.0593087558,19.0630994 0.387214286,18.735809 0.791951613,18.735809 L19.938076,18.735809 C20.3428134,18.735809 20.6707189,19.0630994 20.6707189,19.4668772 C20.6707189,19.870655 20.3427235,20.1979454 19.938076,20.1979454 Z" id="Shape"></path>
                        </g>
                        <path d="M0.0132995392,37.7712008 C0.0132995392,37.9613879 0.0864470046,38.148347 0.226541475,38.2881404 L7.65055991,45.6962027 C7.79074424,45.8360858 7.97801613,45.9102417 8.16870276,45.9103314 L8.16870276,38.502269 C8.16870276,38.0984912 7.84070737,37.7712008 7.43605991,37.7712008 L0.0132995392,37.7712008 Z" id="Shape" fill="#B0B7BD"></path>
                        <path d="M20.2326429,2.68055361 C20.2326429,1.20245614 19.0275069,0 17.5463157,0 L14.4203848,0 C12.9391935,0 11.7340576,1.20245614 11.7340576,2.68055361 L11.7340576,15.5471033 C11.7340576,17.0252008 12.9391935,18.2276569 14.4203848,18.2276569 L15.5926313,18.2276569 C17.0738226,18.2276569 18.2789585,17.0252008 18.2789585,15.5471033 L18.2789585,6.18964522 C18.2789585,5.78586745 17.951053,5.458577 17.5463157,5.458577 C17.1415783,5.458577 16.8136728,5.78586745 16.8136728,6.18964522 L16.8136728,15.547193 C16.8136728,16.2190799 16.2659654,16.7656101 15.5926313,16.7656101 L14.4203848,16.7656101 C13.7470507,16.7656101 13.1993433,16.2190799 13.1993433,15.547193 L13.1993433,2.68055361 C13.1993433,2.00866667 13.7470507,1.46213645 14.4203848,1.46213645 L17.5463157,1.46213645 C18.2196498,1.46213645 18.7673571,2.00866667 18.7673571,2.68055361 L18.7673571,3.07043275 L20.2326429,3.07043275 L20.2326429,2.68055361 Z" id="Shape" fill="#343434"></path>
                    </g>
                </g>
            </g>
        </g>
    </g>
</svg>