<?xml version="1.0" encoding="UTF-8"?>
<svg width="26px" height="34px" viewBox="0 0 26 34" version="1.1" xmlns="http://www.w3.org/2000/svg" xmlns:xlink="http://www.w3.org/1999/xlink">
    <!-- Generator: Sketch 48.1 (47250) - http://www.bohemiancoding.com/sketch -->
    <title>yamoney</title>
    <desc>Created with Sketch.</desc>
    <defs></defs>
    <g id="1920-Заказ-от-лица-менеджера" stroke="none" stroke-width="1" fill="none" fill-rule="evenodd" transform="translate(-650.000000, -2495.000000)">
        <g id="card-7" transform="translate(360.000000, 2187.000000)" fill-rule="nonzero">
            <g id="yamoney" transform="translate(290.000000, 308.000000)">
                <path d="M0.000367206178,16.6031166 C0.000367206178,14.7354588 0.160716511,13.5503846 4.1193856,10.663276 C7.39687622,8.27315715 17.9019583,0.105353215 17.9019583,0.105353215 L17.9019583,13.7400443 L25.8910252,13.7400443 L25.8910252,33.3638444 L2.495696,33.3638444 C1.12330188,33.3638444 0,32.2663055 0,30.9255333 L0.000367206178,16.6031166" id="Fill-1" fill="#F9C637"></path>
                <polyline id="Fill-4" fill="#C8A332" points="17.9019583 13.7400443 17.9019583 21.6404592 3.22179678 31.4108039 21.7824112 25.5109042 21.7824112 13.7400443 17.9019583 13.7400443"></polyline>
                <path d="M11.1936048,13.3314269 C12.0520243,12.3320661 13.3056865,11.9791747 13.9942093,12.5436097 C14.6826096,13.1080446 14.5450275,14.3759902 13.6864855,15.3752314 C12.8284331,16.3744726 11.5744037,16.7268856 10.885881,16.1624507 C10.1974807,15.5981354 10.33543,14.330668 11.1936048,13.3314269" id="Fill-5" fill="#000106"></path>
            </g>
        </g>
    </g>
</svg>