<?xml version="1.0" encoding="UTF-8"?>
<svg width="12px" height="9px" viewBox="0 0 12 9" version="1.1" xmlns="http://www.w3.org/2000/svg" xmlns:xlink="http://www.w3.org/1999/xlink">
    <!-- Generator: Sketch 48.1 (47250) - http://www.bohemiancoding.com/sketch -->
    <title>Shape</title>
    <desc>Created with Sketch.</desc>
    <defs></defs>
    <g id="1920-Заказ-от-лица-менеджера" stroke="none" stroke-width="1" fill="none" fill-rule="evenodd" transform="translate(-390.000000, -2657.000000)">
        <g id="card-1" transform="translate(360.000000, 2578.000000)" fill="#00AC4F" fill-rule="nonzero">
            <g id="Rectangle-2">
                <g id="Group-11">
                    <path d="M30.1384615,83.95 C30.0461538,83.86 30,83.725 30,83.635 C30,83.545 30.0461538,83.41 30.1384615,83.32 L30.7846154,82.69 C30.9692308,82.51 31.2461538,82.51 31.4307692,82.69 L31.4769231,82.735 L34.0153846,85.39 C34.1076923,85.48 34.2461538,85.48 34.3384615,85.39 L40.5230769,79.135 L40.5692308,79.135 C40.7538462,78.955 41.0307692,78.955 41.2153846,79.135 L41.8615385,79.765 C42.0461538,79.945 42.0461538,80.215 41.8615385,80.395 L34.4769231,87.865 C34.3846154,87.955 34.2923077,88 34.1538462,88 C34.0153846,88 33.9230769,87.955 33.8307692,87.865 L30.2307692,84.085 L30.1384615,83.95 Z" id="Shape"></path>
                </g>
            </g>
        </g>
    </g>
</svg>