<?xml version="1.0" encoding="UTF-8"?>
<svg width="14px" height="13px" viewBox="0 0 14 13" version="1.1" xmlns="http://www.w3.org/2000/svg" xmlns:xlink="http://www.w3.org/1999/xlink">
    <!-- Generator: Sketch 48.1 (47250) - http://www.bohemiancoding.com/sketch -->
    <title>history-clock-button copy 4</title>
    <desc>Created with Sketch.</desc>
    <defs></defs>
    <g id="1920-Заказ-от-лица-менеджера" stroke="none" stroke-width="1" fill="none" fill-rule="evenodd" transform="translate(-591.000000, -1866.000000)" opacity="0.400000006">
        <g id="timeline" transform="translate(0.000000, 1672.000000)" fill="#000000" fill-rule="nonzero">
            <g id="Group-4-Copy-15" transform="translate(591.000000, 192.000000)">
                <g id="history-clock-button-copy-4" transform="translate(7.000000, 8.500000) scale(-1, 1) translate(-7.000000, -8.500000) translate(0.000000, 2.000000)" opacity="0.9">
                    <path d="M7.35,0 C4.9,0 2.73,1.3 1.61,3.28421053 L0,1.71052632 L0,6.15789474 L4.55,6.15789474 L2.59,4.24210526 C3.5,2.53157895 5.25,1.36842105 7.35,1.36842105 C10.22,1.36842105 12.6,3.69473684 12.6,6.5 C12.6,9.30526316 10.22,11.6315789 7.35,11.6315789 C5.04,11.6315789 3.15,10.1947368 2.38,8.21052632 L0.91,8.21052632 C1.68,10.9473684 4.27,13 7.35,13 C11.06,13 14,10.0578947 14,6.5 C14,2.94210526 10.99,0 7.35,0 Z M6.3,3.42105263 L6.3,6.91052632 L9.59,8.82631579 L10.15,7.93684211 L7.35,6.29473684 L7.35,3.42105263 L6.3,3.42105263 Z" id="Shape"></path>
                </g>
            </g>
        </g>
    </g>
</svg>